# WaveFront *.obj file (generated by Cinema 4D)

mtllib ./button_17.mtl

v 0.17892894148827 -0.07612319290638 0.01127217337489
v 0.17892894148827 -0.07612319290638 0.01507470756769
v 0.17875674366951 -0.07650142163038 0.01507470756769
v 0.17842926084995 -0.07675728946924 0.01507470756769
v 0.16938064992428 -0.04689833894372 0.01507470756769
v 0.1698200404644 -0.04699205607176 0.01507470756769
v 0.17018243670464 -0.04725760221481 0.01507470756769
v 0.17018243670464 -0.04725760221481 0.01127217337489
v 0.1698200404644 -0.04699205607176 0.01127217337489
v 0.16938064992428 -0.04689833894372 0.01127217337489
v 0.14371126890182 -0.05740483477712 0.01127217337489
v 0.14341974258423 -0.05778329074383 0.01127217337489
v 0.14328290522099 -0.05824099108577 0.01127217337489
v 0.14328290522099 -0.05824099108577 0.01507470756769
v 0.14341974258423 -0.05778329074383 0.01507470756769
v 0.14371126890182 -0.05740483477712 0.01507470756769
v 0.14752621948719 -0.0755140632391 0.01127217337489
v 0.14891444146633 -0.07661718130112 0.01127217337489
v 0.14409084618092 -0.05716682225466 0.01127217337489
v 0.14331151545048 -0.05868811160326 0.01127217337489
v 0.14409084618092 -0.05716682225466 0.01507470756769
v 0.14331151545048 -0.05868811160326 0.01507470756769
v 0.17039242386818 -0.04761315509677 0.01507470756769
v 0.1689755320549 -0.04697826504707 0.01507470756769
v 0.17039242386818 -0.04761315509677 0.01127217337489
v 0.1689755320549 -0.04697826504707 0.01127217337489
v 0.14752621948719 -0.0755140632391 0.01507470756769
v 0.14891444146633 -0.07661718130112 0.01507470756769
v 0.17806406319141 -0.07683429867029 0.01507470756769
v 0.17891842126846 -0.07575011253357 0.01507470756769
v 0.17806406319141 -0.07683429867029 0.01127217337489
v 0.17891842126846 -0.07575011253357 0.01127217337489
v 0.1445721834898 -0.06394603103399 0.01127217337489
v 0.14626555144787 -0.07025613635778 0.01127217337489
v 0.14626555144787 -0.07025613635778 0.01507470756769
v 0.1445721834898 -0.06394603103399 0.01507470756769
v 0.17668195068836 -0.06674569100142 0.01507470756769
v 0.17358522117138 -0.05664870142937 0.01507470756769
v 0.17668195068836 -0.06674569100142 0.01127217337489
v 0.17358522117138 -0.05664870142937 0.01127217337489
v 0.17875674366951 -0.07650142163038 0.01127217337489
v 0.17842926084995 -0.07675728946924 0.01127217337489
v 0.1484589278698 -0.07653957605362 0.01127217337489
v 0.14803017675877 -0.0763049274683 0.01127217337489
v 0.14770472049713 -0.07594026625156 0.01127217337489
v 0.14770472049713 -0.07594026625156 0.01507470756769
v 0.14803017675877 -0.0763049274683 0.01507470756769
v 0.1484589278698 -0.07653957605362 0.01507470756769
# 48 vertices

vn 0 0 1
vn 0 0 1
vn -0.27535745501518 -0.96134197711945 0
vn -0.06112492829561 -0.99813014268875 0
vn -0.11478009074926 -0.99339091777802 0
vn -0.57618755102158 -0.81731748580933 0
vn -0.38069012761116 -0.92470270395279 0
vn -0.84585207700729 -0.53341770172119 0
vn -0.66600877046585 -0.74594384431839 0
vn 0.20633241534233 -0.9784819483757 0
vn 0.06414187699556 -0.99794071912766 0
vn 0.13577042520046 -0.99074023962021 0
vn 0.61567676067352 -0.78799891471863 0
vn 0.61567670106888 -0.78799879550934 0
vn 0.91011649370193 -0.41435265541077 0
vn 0.91011637449265 -0.41435259580612 0
vn -0.19355991482735 0.98108845949173 0
vn -0.31844934821129 0.9479398727417 0
vn -0.25640985369682 0.96656811237335 0
vn 0.20859691500664 0.97800171375275 0
vn 0.59105813503265 0.80662906169891 0
vn 0.59105807542801 0.80662894248962 0
vn -0.62695097923279 0.77905875444412 0
vn -0.43109020590782 0.90230876207352 0
vn -0.48203739523888 0.87615066766739 0
vn -0.86025458574295 0.50986480712891 0
vn -0.71516674757004 0.69895386695862 0
vn -0.993587911129 0.11306188255548 0
vn -0.9163812994957 0.40030634403229 0
vn -0.95049464702606 -0.31074085831642 0
vn -0.95049470663071 -0.31074085831642 0
vn 0.99079066514969 0.1354023963213 0
vn 0.99960267543793 0.02818706259131 0
vn 0.90620756149292 0.42283311486244 0
vn 0.86104565858841 0.50852781534195 0
vn -0.98882895708084 -0.14905442297459 0
vn -0.98882901668549 -0.14905445277691 0
vn -0.96810865402222 -0.25053077936172 0
vn -0.97031277418137 -0.24185349047184 0
vn -0.96810865402222 -0.25053089857101 0
vn 0.96600484848022 0.25852391123772 0
vn 0.95183980464935 0.30659565329552 0
vn 0.96118104457855 0.27591851353645 0
vn -0.97031283378601 -0.24185326695442 0
vn 0.9474458694458 0.31991603970528 0
vn 0.20859691500664 0.97800171375275 0
vn 0.59105807542801 0.80662894248962 0
vn -0.99358797073364 0.11306188255548 0
vn 0.86104553937912 0.5085277557373 0
# 49 normals

vt 0.91929996013641 0.52537876367569 0
vt 0.93360888957977 0.63184022903442 0
vt 0.96615839004517 0.63180357217789 0
vt 0 1 0
vt 0.85978472232819 0.6226681470871 0
vt 0.86293733119965 0.62679594755173 0
vt 0.89665353298187 0.63003933429718 0
vt 0.94245040416718 0.52721440792084 0
vt 0.94303333759308 0.52880281209946 0
vt 0.95605492591858 0.52538639307022 0
vt 0.941814661026 0.52550154924393 0
vt 0.95564031600952 0.52375972270966 0
vt 0.93999707698822 0.5253301858902 0
vt 0.94171696901321 0.51182097196579 0
vt 0.98214161396027 0.62645465135574 0
vt 0.98180270195007 0.62512302398682 0
vt 0.96877956390381 0.62842774391174 0
vt 0.98251122236252 0.62793612480164 0
vt 0.96887350082397 0.62977212667465 0
vt 0.96755874156952 0.64527195692062 0
vt 0.96908229589462 0.64525800943375 0
vt 0.96895551681519 0.63131809234619 0
vt 0.85975551605225 0.62423455715179 0
vt 0.84649503231049 0.62079697847366 0
vt 0.85973191261292 0.62600964307785 0
vt 0.84624564647675 0.62229424715042 0
vt 0.86145257949829 0.62642973661423 0
vt 0.8584548830986 0.64003151655197 0
vt 0.86037313938141 0.52552753686905 0
vt 0.86012005805969 0.52713346481323 0
vt 0.87334358692169 0.52910774946213 0
vt 0.86065191030502 0.52382165193558 0
vt 0.87365162372589 0.52758604288101 0
vt 0.8755294084549 0.51209670305252 0
vt 0.87378466129303 0.51215255260468 0
vt 0.87423026561737 0.52604073286057 0
vt 0.93829739093781 0.51185142993927 0
vt 0.93832242488861 0.52521234750748 0
vt 0.96618747711182 0.64527720212936 0
vt 0.86163437366486 0.64031356573105 0
vt 0.87737941741943 0.52544170618057 0
vt 0.87717175483704 0.51205497980118 0
vt 0.9192910194397 0.5119560956955 0
vt 0.89628636837006 0.51184457540512 0
vt 0.89634084701538 0.52519136667252 0
vt 0.93326938152313 0.64522767066956 0
vt 0.8957132101059 0.64344757795334 0
vt 0.95519530773163 0.52203983068466 0
vt 0.93995845317841 0.51183354854584 0
vt 0.96744120121002 0.63165122270584 0
vt 0.8459854722023 0.62392842769623 0
vt 0.86011171340942 0.64018231630325 0
vt 0.87582635879517 0.5256033539772 0
# 53 texture coordinates

o Button_17
usemtl Boutons
f 30/3/1 37/2/1 35/1/1
f 38/7/1 23/6/2 24/5/2
f 18/10/5 28/9/4 48/8/3
f 43/12/7 48/8/3 47/11/6
f 44/14/9 47/11/6 46/13/8
f 29/17/12 31/16/11 42/15/10
f 4/19/13 42/15/14 41/18/13
f 3/22/15 41/21/16 1/20/15
f 26/24/19 24/5/18 5/23/17
f 10/26/20 5/23/20 6/25/20
f 9/28/21 6/25/22 7/27/21
f 21/31/25 19/30/24 11/29/23
f 16/33/27 11/29/23 12/32/26
f 15/36/29 12/35/26 13/34/28
f 46/13/8 27/38/31 17/37/30
f 1/20/33 32/39/32 30/3/32
f 7/27/35 23/6/34 25/40/34
f 13/34/28 20/42/37 22/41/36
f 36/45/40 33/44/39 34/43/38
f 22/41/36 20/42/37 33/44/39
f 35/1/1 37/2/1 38/7/1
f 30/3/32 32/39/32 39/46/41
f 37/2/43 39/46/41 40/47/42
f 35/1/44 34/43/38 17/37/30
f 38/7/45 40/47/42 25/40/34
f 28/9/4 18/10/5 31/16/11
f 24/5/18 26/24/19 19/30/24
f 43/12/7 18/10/5 48/8/3
f 44/48/9 43/12/7 47/11/6
f 45/49/8 44/14/9 46/13/8
f 4/19/10 29/17/12 42/15/10
f 3/22/14 4/19/13 41/18/13
f 2/50/16 3/22/15 1/20/15
f 10/26/17 26/24/19 5/23/17
f 9/51/46 10/26/20 6/25/20
f 8/52/47 9/28/21 7/27/21
f 16/33/27 21/31/25 11/29/23
f 15/36/29 16/33/27 12/32/26
f 14/53/48 15/36/29 13/34/28
f 45/49/8 46/13/8 17/37/30
f 2/50/33 1/20/33 30/3/32
f 8/52/49 7/27/35 25/40/34
f 14/53/48 13/34/28 22/41/36
f 35/1/44 36/45/40 34/43/38
f 36/45/40 22/41/36 33/44/39
f 36/45/1 35/1/1 38/7/1
f 37/2/43 30/3/32 39/46/41
f 38/7/45 37/2/43 40/47/42
f 27/38/31 35/1/44 17/37/30
f 23/6/34 38/7/45 25/40/34
f 29/17/12 28/9/4 31/16/11
f 21/31/25 24/5/18 19/30/24
f 35/1/1 27/38/1 2/50/1
f 2/50/1 29/17/1 4/19/1
f 27/38/1 28/9/1 29/17/1
f 47/11/1 48/8/1 28/9/1
f 28/9/1 27/38/1 46/13/1
f 23/6/2 7/27/1 5/23/2
f 6/25/1 5/23/2 7/27/1
f 22/41/1 36/45/1 38/7/1
f 14/53/1 22/41/1 38/7/1
f 15/36/1 14/53/1 38/7/1
f 16/33/1 15/36/1 38/7/1
f 21/31/1 16/33/1 38/7/1
f 30/3/1 35/1/1 2/50/1
f 3/22/1 2/50/1 4/19/1
f 2/50/1 27/38/1 29/17/1
f 46/13/1 47/11/1 28/9/1
f 24/5/2 23/6/2 5/23/2
f 21/31/1 38/7/1 24/5/2

