# WaveFront *.obj file (generated by Cinema 4D)

mtllib ./button_16.mtl

v 0.16599069535732 -0.03550731763244 0.01127217337489
v 0.16599069535732 -0.03550731763244 0.01507470756769
v 0.16589367389679 -0.03594325110316 0.01507470756769
v 0.16562478244305 -0.03629982098937 0.01507470756769
v 0.12896236777306 -0.02613303624094 0.01507470756769
v 0.12900504469872 -0.02566719613969 0.01507470756769
v 0.12922014296055 -0.02525180019438 0.01507470756769
v 0.12922014296055 -0.02525180019438 0.01127217337489
v 0.12900504469872 -0.02566719613969 0.01127217337489
v 0.12896236777306 -0.02613303624094 0.01127217337489
v 0.15351086854935 -0.01142351329327 0.01127217337489
v 0.1530949473381 -0.01122877653688 0.01127217337489
v 0.15263594686985 -0.01121292077005 0.01127217337489
v 0.15263594686985 -0.01121292077005 0.01507470756769
v 0.1530949473381 -0.01122877653688 0.01507470756769
v 0.15351086854935 -0.01142351329327 0.01507470756769
v 0.15379899740219 -0.0117360688746 0.01507470756769
v 0.15223716199398 -0.01136013492942 0.01507470756769
v 0.13794694840908 -0.04437298700213 0.01127217337489
v 0.13951697945595 -0.04502715170383 0.01127217337489
v 0.13794694840908 -0.04437298700213 0.01507470756769
v 0.13951697945595 -0.04502715170383 0.01507470756769
v 0.16526828706264 -0.03650176152587 0.01127217337489
v 0.16591320931911 -0.03510499745607 0.01127217337489
v 0.15379899740219 -0.0117360688746 0.01127217337489
v 0.15223716199398 -0.01136013492942 0.01127217337489
v 0.12954767048359 -0.02496458590031 0.01127217337489
v 0.12908348441124 -0.02655147761106 0.01127217337489
v 0.12954767048359 -0.02496458590031 0.01507470756769
v 0.12908348441124 -0.02655147761106 0.01507470756769
v 0.16526828706264 -0.03650176152587 0.01507470756769
v 0.16591320931911 -0.03510499745607 0.01507470756769
v 0.13187086582184 -0.0321559868753 0.01127217337489
v 0.13515955209732 -0.0387684777379 0.01127217337489
v 0.13515955209732 -0.0387684777379 0.01507470756769
v 0.13187086582184 -0.0321559868753 0.01507470756769
v 0.16276142001152 -0.02734843268991 0.01507470756769
v 0.15826866030693 -0.01889285817742 0.01507470756769
v 0.16276142001152 -0.02734843268991 0.01127217337489
v 0.15826866030693 -0.01889285817742 0.01127217337489
v 0.16589367389679 -0.03594325110316 0.01127217337489
v 0.16562478244305 -0.03629982098937 0.01127217337489
v 0.13907562196255 -0.04509248957038 0.01127217337489
v 0.13860987126827 -0.04499308392406 0.01127217337489
v 0.13821133971214 -0.0447323769331 0.01127217337489
v 0.13821133971214 -0.0447323769331 0.01507470756769
v 0.13860987126827 -0.04499308392406 0.01507470756769
v 0.13907562196255 -0.04509248957038 0.01507470756769
# 48 vertices

vn 0 0 1
vn 0.02845374681056 -0.99959516525269 0
vn 0.25919955968857 -0.96582370996475 0
vn 0.2030643671751 -0.97916531562805 0
vn -0.32655519247055 -0.94517815113068 0
vn -0.09163389354944 -0.99579274654388 0
vn -0.68740946054459 -0.72627019882202 0
vn -0.44118598103523 -0.89741563796997 0
vn 0.49287676811218 -0.87009912729263 0
vn 0.37541460990906 -0.92685699462891 0
vn 0.43519756197929 -0.90033495426178 0
vn 0.7984237074852 -0.60209602117538 0
vn 0.97611713409424 -0.21724486351013 0
vn -0.98753952980042 -0.1573707908392 0
vn -0.92040967941284 -0.39095529913902 0
vn -0.94221967458725 -0.33499547839165 0
vn -0.97601735591888 0.21769255399704 0
vn -0.99947637319565 -0.03235619515181 0
vn -0.78732395172119 0.61653953790665 0
vn -0.93947350978851 0.34262153506279 0
vn 0.64221799373627 0.76652204990387 0
vn 0.81367623806 0.58131837844849 0
vn 0.77588963508606 0.63086873292923 0
vn 0.42402985692024 0.90564829111099 0
vn 0.5367180109024 0.84376162290573 0
vn -0.15887773036957 0.98729830980301 0
vn 0.03452352806926 0.9994038939476 0
vn -0.85362309217453 -0.52089107036591 0
vn 0.95878171920776 0.28414380550385 0
vn 0.95878165960312 0.28414380550385 0
vn 0.981953561306 0.18912224471569 0
vn -0.58915865421295 0.80801743268967 0
vn -0.43215307593346 0.90180027484894 0
vn -0.89537519216537 -0.4453125 0
vn -0.89537608623505 -0.44531089067459 0
vn -0.89537572860718 -0.44531148672104 0
vn 0.91305106878281 0.40784531831741 0
vn 0.87192058563232 0.48964729905128 0
vn 0.89858281612396 0.43880406022072 0
vn -0.89537584781647 -0.44531127810478 0
vn 0.86027824878693 0.50982487201691 0
vn -0.78732401132584 0.61653953790665 0
vn -0.15887774527073 0.98729825019836 0
vn 0 0 1
# 44 normals

vt 0.7878782749176 0.52710396051407 0
vt 0.79581809043884 0.63148295879364 0
vt 0.82508826255798 0.62932974100113 0
vt 0 1 0
vt 0.72919034957886 0.62398386001587 0
vt 0.73261260986328 0.62823349237442 0
vt 0.76235508918762 0.63086301088333 0
vt 0.81361222267151 0.52900582551956 0
vt 0.81400239467621 0.53056579828262 0
vt 0.82734191417694 0.52858203649521 0
vt 0.81316864490509 0.52730870246887 0
vt 0.8271073102951 0.52697539329529 0
vt 0.81142580509186 0.5271173119545 0
vt 0.81317257881165 0.51360327005386 0
vt 0.84138965606689 0.62523567676544 0
vt 0.84119641780853 0.6237615942955 0
vt 0.8278501033783 0.6256514787674 0
vt 0.84159553050995 0.62683963775635 0
vt 0.82791340351105 0.62703943252563 0
vt 0.82756519317627 0.64273875951767 0
vt 0.82920908927917 0.64258950948715 0
vt 0.82793807983398 0.62859272956848 0
vt 0.7383987903595 0.52766793966293 0
vt 0.7399206161499 0.52751225233078 0
vt 0.73971629142761 0.51414799690247 0
vt 0.73683214187622 0.52810662984848 0
vt 0.73812127113342 0.51418524980545 0
vt 0.73634099960327 0.52964407205582 0
vt 0.72307145595551 0.52678674459457 0
vt 0.72985088825226 0.64174318313599 0
vt 0.73143494129181 0.64186471700668 0
vt 0.72813987731934 0.64160305261612 0
vt 0.73105669021606 0.62786138057709 0
vt 0.71565389633179 0.6245619058609 0
vt 0.71550798416138 0.62622761726379 0
vt 0.72929954528809 0.62743633985519 0
vt 0.80984795093536 0.51360815763474 0
vt 0.80987429618835 0.5269883275032 0
vt 0.82604956626892 0.64286798238754 0
vt 0.72276651859283 0.53006201982498 0
vt 0.73612213134766 0.53113234043121 0
vt 0.71579551696777 0.62302380800247 0
vt 0.76191675662994 0.52729851007462 0
vt 0.78779625892639 0.51371961832047 0
vt 0.79613983631134 0.64487385749817 0
vt 0.76170408725739 0.64433157444 0
vt 0.76179051399231 0.51391130685806 0
vt 0.82685095071793 0.52526181936264 0
vt 0.8114560842514 0.51360279321671 0
vt 0.82649326324463 0.62909209728241 0
vt 0.73641502857208 0.5142365694046 0
vt 0.72290897369385 0.52847957611084 0
vt 0.72924721240997 0.6255966424942 0
# 53 texture coordinates

o Button_16
usemtl Boutons
f 32/3/1 37/2/1 35/1/1
f 38/7/1 17/6/1 18/5/1
f 20/10/4 22/9/3 48/8/2
f 43/12/6 48/8/2 47/11/5
f 44/14/8 47/11/5 46/13/7
f 31/17/11 23/16/10 42/15/9
f 4/19/12 42/15/12 41/18/12
f 3/22/13 41/21/13 1/20/13
f 28/25/16 30/24/15 5/23/14
f 10/27/18 5/23/14 6/26/17
f 9/29/20 6/26/17 7/28/19
f 17/6/23 25/31/22 11/30/21
f 16/33/25 11/30/21 12/32/24
f 15/36/27 12/35/27 13/34/26
f 46/13/7 21/38/28 19/37/28
f 1/20/31 24/39/30 32/3/29
f 7/28/19 29/41/32 27/40/32
f 13/34/26 26/42/33 18/5/33
f 19/37/28 21/38/28 35/1/34
f 34/44/36 35/1/34 36/43/35
f 35/1/1 37/2/1 38/7/1
f 32/3/29 24/39/30 39/45/37
f 37/2/39 39/45/37 40/46/38
f 18/5/33 26/42/33 27/40/32
f 22/9/3 20/10/4 23/16/10
f 33/47/40 36/43/35 30/24/15
f 38/7/41 40/46/38 25/31/22
f 43/12/6 20/10/4 48/8/2
f 44/48/8 43/12/6 47/11/5
f 45/49/7 44/14/8 46/13/7
f 4/19/9 31/17/11 42/15/9
f 3/22/12 4/19/12 41/18/12
f 2/50/13 3/22/13 1/20/13
f 10/27/18 28/25/16 5/23/14
f 9/51/20 10/27/18 6/26/17
f 8/52/42 9/29/20 7/28/19
f 16/33/25 17/6/23 11/30/21
f 15/36/24 16/33/25 12/32/24
f 14/53/43 15/36/27 13/34/26
f 45/49/7 46/13/7 19/37/28
f 2/50/31 1/20/31 32/3/29
f 8/52/42 7/28/19 27/40/32
f 14/53/43 13/34/26 18/5/33
f 34/44/36 19/37/28 35/1/34
f 33/47/40 34/44/36 36/43/35
f 36/43/1 35/1/1 38/7/1
f 37/2/39 32/3/29 39/45/37
f 38/7/41 37/2/39 40/46/38
f 29/41/32 18/5/33 27/40/32
f 31/17/11 22/9/3 23/16/10
f 28/25/16 33/47/40 30/24/15
f 17/6/23 38/7/41 25/31/22
f 35/1/1 21/38/1 2/50/1
f 46/13/1 3/22/1 2/50/1
f 31/17/1 4/19/1 3/22/1
f 46/13/1 22/9/1 31/17/1
f 47/11/1 48/8/44 22/9/1
f 17/6/1 16/33/1 14/53/1
f 15/36/1 14/53/1 16/33/1
f 30/24/1 36/43/1 38/7/1
f 5/23/1 30/24/1 38/7/1
f 6/26/1 5/23/1 38/7/1
f 7/28/1 6/26/1 38/7/1
f 29/41/1 7/28/1 38/7/1
f 32/3/1 35/1/1 2/50/1
f 21/38/1 46/13/1 2/50/1
f 3/22/1 46/13/1 31/17/1
f 46/13/1 47/11/1 22/9/1
f 18/5/1 17/6/1 14/53/1
f 29/41/1 38/7/1 18/5/1

