# WaveFront *.obj file (generated by Cinema 4D)

mtllib ./button_8.mtl

v 0.12863703072071 0.08111400902271 0.01127217337489
v 0.12863703072071 0.08111400902271 0.01507470756769
v 0.12906175851822 0.08127148449421 0.01507470756769
v 0.12951391935349 0.08124420791864 0.01507470756769
v 0.1338000446558 0.04021864756942 0.01507470756769
v 0.13334283232689 0.04015916585922 0.01507470756769
v 0.13289852440357 0.0402823574841 0.01507470756769
v 0.13289852440357 0.0402823574841 0.01127217337489
v 0.13334283232689 0.04015916585922 0.01127217337489
v 0.1338000446558 0.04021864756942 0.01127217337489
v 0.15462020039558 0.05773851647973 0.01127217337489
v 0.15474238991737 0.0581718608737 0.01127217337489
v 0.15467704832554 0.05861733108759 0.01127217337489
v 0.15467704832554 0.05861733108759 0.01507470756769
v 0.15474238991737 0.0581718608737 0.01507470756769
v 0.15462020039558 0.05773851647973 0.01507470756769
v 0.12988811731338 0.08105923235416 0.01127217337489
v 0.12833271920681 0.0808282867074 0.01127217337489
v 0.11367444694042 0.06054372340441 0.01507470756769
v 0.11387478560209 0.05890446528792 0.01507470756769
v 0.11367444694042 0.06054372340441 0.01127217337489
v 0.11387478560209 0.05890446528792 0.01127217337489
v 0.15436041355133 0.05741604417562 0.01127217337489
v 0.15446096658707 0.05897058919072 0.01127217337489
v 0.15436041355133 0.05741604417562 0.01507470756769
v 0.15446096658707 0.05897058919072 0.01507470756769
v 0.13255977630615 0.04054282978177 0.01507470756769
v 0.13417206704617 0.0404288880527 0.01507470756769
v 0.13255977630615 0.04054282978177 0.01127217337489
v 0.13417206704617 0.0404288880527 0.01127217337489
v 0.12988811731338 0.08105923235416 0.01507470756769
v 0.12833271920681 0.0808282867074 0.01507470756769
v 0.14780522882938 0.06622905284166 0.01127217337489
v 0.13864162564278 0.07440140843391 0.01127217337489
v 0.13864162564278 0.07440140843391 0.01507470756769
v 0.14780522882938 0.06622905284166 0.01507470756769
v 0.11974205821753 0.05394425988197 0.01507470756769
v 0.12750086188316 0.04619361460209 0.01507470756769
v 0.11974205821753 0.05394425988197 0.01127217337489
v 0.12750086188316 0.04619361460209 0.01127217337489
v 0.12906175851822 0.08127148449421 0.01127217337489
v 0.12951391935349 0.08124420791864 0.01127217337489
v 0.11348685622215 0.06015104800463 0.01507470756769
v 0.11345323175192 0.0596848167479 0.01507470756769
v 0.11359814554453 0.05924040451646 0.01507470756769
v 0.11359814554453 0.05924040451646 0.01127217337489
v 0.11345323175192 0.0596848167479 0.01127217337489
v 0.11348685622215 0.06015104800463 0.01127217337489
# 48 vertices

vn 0 0 1
vn 0 0 1
vn 0 0 1
vn -0.94867938756943 0.31623932719231 0
vn -0.84416103363037 0.53608971834183 0
vn -0.87487185001373 0.48435443639755 0
vn -0.99841296672821 -0.05631709843874 0
vn -0.98087257146835 0.19465067982674 0
vn -0.87659686803818 -0.48122555017471 0
vn -0.98259127140045 -0.18578051030636 0
vn 0.44313943386078 0.89645278453827 0
vn 0.55354499816895 0.83281916379929 0
vn 0.4992444217205 0.86646109819412 0
vn 0.06021547690034 0.99818539619446 0
vn -0.34764221310616 0.93762731552124 0
vn 0.37718909978867 -0.92613619565964 0
vn 0.5954881310463 -0.80336403846741 0
vn 0.54468274116516 -0.83864217996597 0
vn 0.12900930643082 -0.99164336919785 0
vn 0.25417491793633 -0.96715825796127 0
vn -0.44662362337112 -0.89472186565399 0
vn -0.26718625426292 -0.96364486217499 0
vn -0.26718628406525 -0.96364498138428 0
vn 0.778733253479 -0.62735515832901 0
vn 0.69166505336761 -0.72221833467484 0
vn 0.73681819438934 -0.67609107494354 0
vn 0.96247047185898 -0.27138644456863 0
vn 0.98941308259964 0.1451271623373 0
vn 0.98941296339035 0.14512714743614 0
vn -0.7116607427597 -0.70252335071564 0
vn -0.75093227624893 0.66037917137146 0
vn -0.68448954820633 0.7290226817131 0
vn -0.68021476268768 -0.73301291465759 0
vn -0.68021476268768 -0.73301291465759 0
vn 0.79877710342407 0.60162711143494 0
vn 0.85306495428085 0.52180474996567 0
vn 0.64595597982407 0.76337468624115 0
vn 0.71402609348297 0.70011913776398 0
vn 0.69018024206162 0.72363746166229 0
vn -0.66649407148361 -0.74551028013229 0
vn -0.71975415945053 -0.69422894716263 0
vn -0.68688535690308 -0.72676575183868 0
vn 0.62587320804596 0.77992480993271 0
vn -0.7325296998024 -0.68073493242264 0
vn 0.44313937425613 0.89645266532898 0
vn -0.4466235935688 -0.89472186565399 0
vn -0.68448948860168 0.72902262210846 0
vn 0 0 1
vn 0 0 1
# 49 normals

vt 0.40983259677887 0.75489044189453 0
vt 0.41327726840973 0.75965744256973 0
vt 0.45594346523285 0.76485347747803 0
vt 0 1 0
vt 0.50347113609314 0.76690566539764 0
vt 0.54190289974213 0.76487028598785 0
vt 0.54558944702148 0.76028919219971 0
vt 0.40992212295532 0.65457993745804 0
vt 0.4096365571022 0.65631586313248 0
vt 0.42425972223282 0.65858370065689 0
vt 0.4102395772934 0.65272384881973 0
vt 0.42463833093643 0.65695506334305 0
vt 0.42770981788635 0.6402342915535 0
vt 0.42584934830666 0.6401714682579 0
vt 0.42533880472183 0.65530651807785 0
vt 0.40974563360214 0.77443450689316 0
vt 0.41145342588425 0.77462643384933 0
vt 0.40789297223091 0.77421689033508 0
vt 0.41162729263306 0.75919204950333 0
vt 0.3948130607605 0.75442099571228 0
vt 0.39449805021286 0.75624746084213 0
vt 0.4097204208374 0.75866425037384 0
vt 0.53492975234985 0.65647447109222 0
vt 0.53524005413055 0.65808606147766 0
vt 0.54998540878296 0.65650421380997 0
vt 0.53430199623108 0.65482133626938 0
vt 0.54978334903717 0.65478259325027 0
vt 0.53256869316101 0.65443217754364 0
vt 0.53373456001282 0.6396159529686 0
vt 0.56057918071747 0.76050198078156 0
vt 0.56037926673889 0.75884205102921 0
vt 0.56078815460205 0.76231062412262 0
vt 0.54555559158325 0.76206636428833 0
vt 0.54438602924347 0.77991986274719 0
vt 0.54625183343887 0.77983224391937 0
vt 0.54551231861114 0.76407396793365 0
vt 0.42876756191254 0.65485382080078 0
vt 0.4294473528862 0.64030510187149 0
vt 0.39511573314667 0.75274634361267 0
vt 0.5301765203476 0.63976067304611 0
vt 0.53090560436249 0.65436774492264 0
vt 0.54266953468323 0.77999091148376 0
vt 0.45476597547531 0.77970457077026 0
vt 0.50349271297455 0.78178215026855 0
vt 0.50143277645111 0.65610873699188 0
vt 0.45891284942627 0.64182633161545 0
vt 0.50097334384918 0.64136189222336 0
vt 0.45863091945648 0.65660107135773 0
vt 0.42708730697632 0.65491837263107 0
vt 0.40977680683136 0.75666403770447 0
vt 0.54955440759659 0.65293318033218 0
vt 0.53189086914062 0.63968473672867 0
vt 0.54357385635376 0.76449704170227 0
# 53 texture coordinates

o Button_8
usemtl Boutons
f 35/3/1 31/2/1 32/1/1
f 25/7/3 26/6/1 36/5/2
f 19/10/6 21/9/5 48/8/4
f 43/12/8 48/8/4 47/11/7
f 44/15/10 47/14/7 46/13/9
f 31/2/13 17/17/12 42/16/11
f 4/19/14 42/16/14 41/18/14
f 3/22/15 41/21/15 1/20/15
f 30/25/18 28/24/17 5/23/16
f 10/27/20 5/23/16 6/26/19
f 9/29/23 6/26/22 7/28/21
f 25/7/26 23/31/25 11/30/24
f 16/33/27 11/30/27 12/32/27
f 15/36/28 12/35/29 13/34/28
f 46/13/9 22/38/30 20/37/30
f 1/20/32 18/39/31 32/1/31
f 7/28/21 27/41/34 29/40/33
f 13/34/36 24/42/35 26/6/35
f 36/5/39 33/44/38 34/43/37
f 26/6/35 24/42/35 33/44/38
f 38/45/1 36/5/2 35/3/1
f 20/37/30 22/38/30 39/46/40
f 37/48/42 39/46/40 40/47/41
f 32/1/31 18/39/31 21/9/5
f 35/3/43 34/43/37 17/17/12
f 38/45/44 40/47/41 29/40/33
f 28/24/17 30/25/18 23/31/25
f 43/12/8 19/10/6 48/8/4
f 44/15/10 43/12/8 47/11/7
f 45/49/9 44/15/10 46/13/9
f 4/19/45 31/2/13 42/16/11
f 3/22/14 4/19/14 41/18/14
f 2/50/15 3/22/15 1/20/15
f 10/27/20 30/25/18 5/23/16
f 9/51/19 10/27/20 6/26/19
f 8/52/46 9/29/23 7/28/21
f 16/33/24 25/7/26 11/30/24
f 15/36/27 16/33/27 12/32/27
f 14/53/29 15/36/28 13/34/28
f 45/49/9 46/13/9 20/37/30
f 2/50/47 1/20/32 32/1/31
f 8/52/46 7/28/21 29/40/33
f 14/53/36 13/34/36 26/6/35
f 35/3/43 36/5/39 34/43/37
f 36/5/39 26/6/35 33/44/38
f 37/48/1 38/45/1 35/3/1
f 37/48/42 20/37/30 39/46/40
f 38/45/44 37/48/42 40/47/41
f 19/10/6 32/1/31 21/9/5
f 31/2/13 35/3/43 17/17/12
f 27/41/34 38/45/44 29/40/33
f 25/7/26 28/24/17 23/31/25
f 31/2/1 4/19/1 2/50/1
f 3/22/48 2/50/1 4/19/1
f 20/37/1 37/48/1 35/3/1
f 45/49/1 20/37/1 35/3/1
f 44/15/1 45/49/1 35/3/1
f 43/12/1 44/15/1 35/3/1
f 19/10/1 43/12/1 35/3/1
f 25/7/3 16/33/1 14/53/1
f 15/36/1 14/53/1 16/33/1
f 36/5/2 5/23/48 28/24/49
f 36/5/2 6/26/1 5/23/48
f 36/5/2 7/28/1 6/26/1
f 36/5/2 27/41/1 7/28/1
f 36/5/2 38/45/1 27/41/1
f 32/1/1 31/2/1 2/50/1
f 26/6/1 25/7/3 14/53/1
f 19/10/1 35/3/1 32/1/1
f 28/24/49 25/7/3 36/5/2

