# WaveFront *.obj file (generated by Cinema 4D)

mtllib ./button_15.mtl

v 0.13131634891033 0.01876284740865 0.01507470756769
v 0.13131634891033 0.01876284740865 0.01127217337489
v 0.13087916374207 0.01887306384742 0.01127217337489
v 0.1304349899292 0.01879575289786 0.01127217337489
v 0.11188931018114 0.00091292301659 0.01127217337489
v 0.11175525933504 0.00045234709978 0.01127217337489
v 0.11179281771183 -0.00002586845039 0.01127217337489
v 0.11179281771183 -0.00002586845039 0.01507470756769
v 0.11175525933504 0.00045234709978 0.01507470756769
v 0.11188931018114 0.00091292301659 0.01507470756769
v 0.12259913980961 -0.01628070324659 0.01127217337489
v 0.12301886081696 -0.01646980643272 0.01127217337489
v 0.12347910553217 -0.01647996902466 0.01127217337489
v 0.12347910553217 -0.01647996902466 0.01507470756769
v 0.12301886081696 -0.01646980643272 0.01507470756769
v 0.12259913980961 -0.01628070324659 0.01507470756769
v 0.11215610057116 0.00127595721278 0.01127217337489
v 0.1119801774621 -0.00043558172183 0.01127217337489
v 0.12230498343706 -0.01597196422517 0.01127217337489
v 0.12387757003307 -0.01632807403803 0.01127217337489
v 0.13164679706097 0.01851201616228 0.01127217337489
v 0.13008676469326 0.01857025921345 0.01127217337489
v 0.14583694934845 -0.00286920322105 0.01127217337489
v 0.14623372256756 -0.00130608654581 0.01127217337489
v 0.13164679706097 0.01851201616228 0.01507470756769
v 0.13008676469326 0.01857025921345 0.01507470756769
v 0.11215610057116 0.00127595721278 0.01507470756769
v 0.1119801774621 -0.00043558172183 0.01507470756769
v 0.12230498343706 -0.01597196422517 0.01507470756769
v 0.12387757003307 -0.01632807403803 0.01507470756769
v 0.14583694934845 -0.00286920322105 0.01507470756769
v 0.14623372256756 -0.00130608654581 0.01507470756769
v 0.11510626971722 -0.0050185979344 0.01127217337489
v 0.11896357685328 -0.01082219183445 0.01127217337489
v 0.11896357685328 -0.01082219183445 0.01507470756769
v 0.11510626971722 -0.0050185979344 0.01507470756769
v 0.1425945609808 0.00499454792589 0.01507470756769
v 0.13713322579861 0.01236687693745 0.01507470756769
v 0.1425945609808 0.00499454792589 0.01127217337489
v 0.13713322579861 0.01236687693745 0.01127217337489
v 0.13087916374207 0.01887306384742 0.01507470756769
v 0.1304349899292 0.01879575289786 0.01507470756769
v 0.14615321159363 -0.00258305063471 0.01507470756769
v 0.1463531255722 -0.00216830847785 0.01507470756769
v 0.14637522399426 -0.00170843233354 0.01507470756769
v 0.14637522399426 -0.00170843233354 0.01127217337489
v 0.1463531255722 -0.00216830847785 0.01127217337489
v 0.14615321159363 -0.00258305063471 0.01127217337489
# 48 vertices

vn 0 0 1
vn 0 0 1
vn 0.76009809970856 -0.64980828762054 0
vn 0.57421094179153 -0.81870740652084 0
vn 0.62385672330856 -0.78153866529465 0
vn 0.90081208944321 -0.43420937657356 0
vn 0.8380121588707 -0.5456514954567 0
vn 0.98949402570724 0.14457382261753 0
vn 0.99884748458862 -0.04799760505557 0
vn -0.5435426235199 0.83938157558441 0
vn -0.64665848016739 0.76277965307236 0
vn -0.59622514247894 0.80281740427017 0
vn -0.17147752642632 0.98518806695938 0
vn 0.24445594847202 0.9696604013443 0
vn -0.8690819144249 0.4946683049202 0
vn -0.73376083374023 0.67940783500671 0
vn -0.77107578516006 0.63674330711365 0
vn -0.98669910430908 0.16255708038807 0
vn -0.921242415905 0.38898885250092 0
vn -0.96800529956818 -0.25092986226082 0
vn -0.99913626909256 0.04155477881432 0
vn -0.62999254465103 -0.77660119533539 0
vn -0.80366480350494 -0.59508222341537 0
vn -0.76522189378738 -0.64376664161682 0
vn -0.41077789664268 -0.91173553466797 0
vn -0.52383303642273 -0.85182094573975 0
vn 0.17022627592087 -0.98540502786636 0
vn -0.02207546308637 -0.99975633621216 0
vn 0.90855747461319 0.41775980591774 0
vn 0.67842954397202 0.73466539382935 0
vn 0.60461056232452 0.79652136564255 0
vn -0.87090343236923 -0.49145418405533 0
vn -0.87090337276459 -0.49145418405533 0
vn 0.44127848744392 -0.8973702788353 0
vn 0.4412784576416 -0.8973702788353 0
vn -0.83485865592957 -0.55046445131302 0
vn -0.82836765050888 -0.56018477678299 0
vn -0.83060449361801 -0.55686271190643 0
vn 0.84635508060455 0.53261923789978 0
vn 0.78507071733475 0.61940616369247 0
vn 0.82552576065063 0.56436449289322 0
vn 0.76585865020752 0.64300900697708 0
vn -0.83687794208527 -0.54738956689835 0
vn 0.90081197023392 -0.43420931696892 0
vn 0.24445594847202 0.9696604013443 0
vn -0.41077783703804 -0.91173541545868 0
vn 0.60461050271988 0.79652124643326 0
vn 0 0 1
vn 0 0 1
# 49 normals

vt 0.63860142230988 0.62815225124359 0
vt 0.64615666866302 0.53022676706314 0
vt 0.62668001651764 0.53016293048859 0
vt 0 1 0
vt 0.69221532344818 0.52992194890976 0
vt 0.67065334320068 0.53013223409653 0
vt 0.67056894302368 0.62962609529495 0
vt 0.71327590942383 0.62492883205414 0
vt 0.71317255496979 0.6233828663826 0
vt 0.6997674703598 0.62392258644104 0
vt 0.71337991952896 0.62660229206085 0
vt 0.69966650009155 0.62559455633163 0
vt 0.69848191738129 0.64188224077225 0
vt 0.70021826028824 0.64180243015289 0
vt 0.6995587348938 0.62746208906174 0
vt 0.60667276382446 0.62146252393723 0
vt 0.60677754878998 0.61987376213074 0
vt 0.59357905387878 0.6175132393837 0
vt 0.60654425621033 0.62328940629959 0
vt 0.59327936172485 0.61899071931839 0
vt 0.60825037956238 0.62382972240448 0
vt 0.60469132661819 0.63755375146866 0
vt 0.60961413383484 0.52970397472382 0
vt 0.60930204391479 0.53131198883057 0
vt 0.62243628501892 0.53376311063766 0
vt 0.60995572805405 0.52799862623215 0
vt 0.62282657623291 0.53224450349808 0
vt 0.62498223781586 0.51686054468155 0
vt 0.62323951721191 0.51689016819 0
vt 0.62347435951233 0.5307058095932 0
vt 0.693767786026 0.51655286550522 0
vt 0.69219017028809 0.51656579971313 0
vt 0.69546860456467 0.51655542850494 0
vt 0.69370985031128 0.53006386756897 0
vt 0.70913243293762 0.53131759166718 0
vt 0.70903038978577 0.52965009212494 0
vt 0.69525730609894 0.5304936170578 0
vt 0.69620883464813 0.62820810079575 0
vt 0.69687330722809 0.64194732904434 0
vt 0.60796213150024 0.63791805505753 0
vt 0.60974645614624 0.62429678440094 0
vt 0.62662410736084 0.51684349775314 0
vt 0.69587123394012 0.53350454568863 0
vt 0.70921838283539 0.53286772966385 0
vt 0.67058062553406 0.51675027608871 0
vt 0.64612412452698 0.51685261726379 0
vt 0.67055022716522 0.64307636022568 0
vt 0.63747119903564 0.64158326387405 0
vt 0.69776654243469 0.62785291671753 0
vt 0.59296071529388 0.62060135602951 0
vt 0.60639595985413 0.63775050640106 0
vt 0.62510240077972 0.53030127286911 0
vt 0.6956992149353 0.53202748298645 0
# 53 texture coordinates

o Button_15
usemtl Boutons
f 28/3/1 36/2/1 38/1/1
f 37/7/2 35/6/1 29/5/1
f 31/10/5 23/9/4 48/8/3
f 43/12/7 48/8/3 47/11/6
f 44/15/9 47/14/9 46/13/8
f 22/18/12 26/17/11 42/16/10
f 4/20/13 42/16/13 41/19/13
f 3/22/14 41/19/14 1/21/14
f 27/25/17 17/24/16 5/23/15
f 10/27/19 5/23/15 6/26/18
f 9/30/21 6/29/18 7/28/20
f 29/5/24 19/32/23 11/31/22
f 16/34/26 11/31/22 12/33/25
f 15/37/28 12/36/28 13/35/27
f 46/13/8 24/39/29 32/38/29
f 1/21/31 25/41/30 21/40/30
f 7/28/20 18/42/33 28/3/32
f 13/35/27 20/44/35 30/43/34
f 36/2/38 33/46/37 34/45/36
f 28/3/32 18/42/33 33/46/37
f 38/1/1 36/2/1 35/6/1
f 32/38/29 24/39/29 39/47/39
f 37/7/41 39/47/39 40/48/40
f 38/1/42 40/48/40 21/40/30
f 30/43/34 20/44/35 23/9/4
f 26/17/11 22/18/12 17/24/16
f 35/6/43 34/45/36 19/32/23
f 43/12/7 31/10/5 48/8/3
f 44/15/44 43/12/7 47/11/6
f 45/49/8 44/15/9 46/13/8
f 4/20/10 22/18/12 42/16/10
f 3/50/13 4/20/13 41/19/13
f 2/51/45 3/22/14 1/21/14
f 10/27/19 27/25/17 5/23/15
f 9/30/21 10/27/19 6/26/18
f 8/52/20 9/30/21 7/28/20
f 16/34/26 29/5/24 11/31/22
f 15/37/46 16/34/26 12/33/25
f 14/53/27 15/37/28 13/35/27
f 45/49/8 46/13/8 32/38/29
f 2/51/47 1/21/31 21/40/30
f 8/52/20 7/28/20 28/3/32
f 14/53/27 13/35/27 30/43/34
f 35/6/43 36/2/38 34/45/36
f 36/2/38 28/3/32 33/46/37
f 37/7/2 38/1/1 35/6/1
f 37/7/41 32/38/29 39/47/39
f 38/1/42 37/7/41 40/48/40
f 25/41/30 38/1/42 21/40/30
f 31/10/5 30/43/34 23/9/4
f 27/25/17 26/17/11 17/24/16
f 29/5/24 35/6/43 19/32/23
f 8/52/1 28/3/1 38/1/1
f 9/30/1 8/52/1 38/1/1
f 10/27/1 9/30/1 38/1/1
f 27/25/1 10/27/1 38/1/1
f 38/1/1 25/41/1 26/17/1
f 25/41/1 1/21/1 42/16/1
f 41/19/1 42/16/1 1/21/1
f 31/10/48 32/38/1 37/7/2
f 31/10/48 43/12/1 45/49/1
f 44/15/1 45/49/1 43/12/1
f 37/7/2 14/53/1 30/43/49
f 37/7/2 15/37/1 14/53/1
f 37/7/2 16/34/1 15/37/1
f 37/7/2 29/5/1 16/34/1
f 27/25/1 38/1/1 26/17/1
f 26/17/1 25/41/1 42/16/1
f 30/43/49 31/10/48 37/7/2
f 32/38/1 31/10/48 45/49/1

