# WaveFront *.obj file (generated by Cinema 4D)

mtllib ./big_button.mtl

v -0.01357462536544 -0.14300505816936 0.01031810231507
v -0.01114562340081 -0.14362363517284 0.01031810231507
v -0.00870409794152 -0.14305651187897 0.01031810231507
v -0.00870409794152 -0.14305651187897 0.02113532647491
v -0.01114562340081 -0.14362363517284 0.02113532647491
v -0.01357462536544 -0.14300505816936 0.02113532647491
v -0.03585073724389 -0.11400970816612 0.02113532647491
v -0.03635551407933 -0.11109620332718 0.02113532647491
v -0.03587914630771 -0.10817792266607 0.02113532647491
v -0.03587914630771 -0.10817792266607 0.01031810231507
v -0.03635551407933 -0.11109620332718 0.01031810231507
v -0.03585073724389 -0.11400970816612 0.01031810231507
v -0.01524221338332 -0.0799734890461 0.01031810231507
v -0.00700585031882 -0.07988692820072 0.01031810231507
v -0.00695365248248 -0.14163711667061 0.01031810231507
v -0.01529470086098 -0.14154902100563 0.01031810231507
v -0.03451666235924 -0.11647432297468 0.01031810231507
v -0.03456915169954 -0.10570042580366 0.01031810231507
v 0.01331646833569 -0.10578698664904 0.01031810231507
v 0.01326427049935 -0.1163862273097 0.01031810231507
v -0.00700585031882 -0.07988692820072 0.02113532647491
v 0.01461963355541 -0.1139769628644 0.02113532647491
v -0.01524221338332 -0.0799734890461 0.02113532647491
v -0.01529470086098 -0.14154902100563 0.02113532647491
v 0.015135968104 -0.1110956966877 0.02113532647491
v -0.00695365248248 -0.14163711667061 0.02113532647491
v -0.03456915169954 -0.10570042580366 0.02113532647491
v 0.01464803703129 -0.1082094758749 0.01031810231507
v -0.03451666235924 -0.11647432297468 0.02113532647491
v 0.01326427049935 -0.1163862273097 0.02113532647491
v 0.01464803703129 -0.1082094758749 0.02113532647491
v 0.01331646833569 -0.10578698664904 0.02113532647491
v 0.015135968104 -0.1110956966877 0.01031810231507
v 0.01461963355541 -0.1139769628644 0.01031810231507
v -0.00872623641044 -0.07846948504448 0.02113532647491
v -0.01114536635578 -0.07790011167526 0.02113532647491
v -0.01118039805442 -0.09417489171028 0.02752722240984
v -0.01355199608952 -0.07852019369602 0.02113532647491
v -0.01355199608952 -0.07852019369602 0.01031810231507
v -0.02133888751268 -0.11110728979111 0.02752722240984
v -0.01114536635578 -0.07790011167526 0.01031810231507
v -0.00872623641044 -0.07846948504448 0.01031810231507
v -0.01118039805442 -0.12803968787193 0.02752722240984
v -0.00102190836333 -0.11110728979111 0.02752722240984
# 44 vertices

vn 0.36520844697952 -0.04727005958557 0.92972487211227
vn 0.34842982888222 0.22596149146557 0.90969121456146
vn 0.354820728302 0.12502731382847 0.92653685808182
vn 0.36785337328911 -0.00186592666432 0.92988193035126
vn 0.35473889112473 -0.12905144691467 0.92601615190506
vn 0 0 1
vn -0.38510411977768 0.07197041809559 0.92006248235703
vn -0.39143723249435 -0.034647423774 0.91955226659775
vn -0.37740245461464 0.12797531485558 0.91716396808624
vn -0.99814665317535 -0.06085526570678 0
vn -0.92552953958511 -0.37867540121078 0
vn -0.96124339103699 -0.2757011950016 0
vn -0.94793826341629 0.31845414638519 0
vn -0.99869209527969 0.0511280298233 0
vn -0.73001170158386 0.68343472480774 0
vn -0.65196412801743 0.75824993848801 0
vn 0.8342924118042 0.55132222175598 0
vn 0.8342924118042 0.55132222175598 0
vn 0.94440013170242 0.32879814505577 0
vn 0.70928889513016 -0.70491790771484 0
vn 0.70928889513016 -0.7049178481102 0
vn 0.62983280420303 -0.77673077583313 0
vn -0.84440696239471 0.53570210933685 0
vn -0.84440702199936 0.53570210933685 0
vn 0.68974608182907 0.72405129671097 0
vn 0.74029034376144 0.6722874045372 0
vn 0.84371817111969 -0.53678649663925 0
vn 0.81331449747086 -0.58182436227798 0
vn -0.82451695203781 -0.56583726406097 0
vn -0.69883674383163 -0.71528118848801 0
vn -0.74826937913895 -0.66339498758316 0
vn 0 0 1
vn 0.63588225841522 0.77178621292114 0
vn 0.2291027456522 0.97340226173401 0
vn 0.22625868022442 -0.97406733036041 0
vn 0.2262586504221 -0.97406721115112 0
vn -0.24678632616997 -0.9690700173378 0
vn -0.24678629636765 -0.96906989812851 0
vn -0.64609444141388 -0.76325750350952 0
vn 0.99802231788635 -0.06286023557186 0
vn 0.99859303236008 0.05302686989307 0
vn 0.92059254646301 -0.39052441716194 0
vn 0.95865523815155 -0.28457015752792 0
vn -0.24950689077377 0.9683730006218 0
vn -0.85319423675537 -0.52159339189529 0
vn -0.65196406841278 0.75824981927872 0
vn 0.94440019130707 0.32879817485809 0
vn 0.63588219881058 0.77178609371185 0
vn -0.24678629636765 -0.96906989812851 0
vn -0.64609444141388 -0.76325750350952 0
vn 0.07664431631565 0.31495869159698 0.94600558280945
vn -0.0486397780478 0.36522284150124 0.92964857816696
vn 0.17821101844311 0.34691062569618 0.92081147432327
vn 0.34525287151337 -0.28640487790108 0.89374083280563
vn -0.04780950769782 -0.3309081196785 0.94245105981827
vn 0.18177032470703 -0.35959380865097 0.91523313522339
vn -0.00425320677459 -0.37948390841484 0.925188601017
vn -0.37730532884598 -0.2143768966198 0.90093463659286
vn -0.19184461236 -0.35937321186066 0.91326153278351
vn -0.32046934962273 0.29340776801109 0.90067273378372
vn 0.318723320961 0.30791163444519 0.89644068479538
vn 0.32851275801659 -0.22242379188538 0.9179362654686
vn -0.33631283044815 -0.31713590025902 0.88674598932266
vn -0.34913629293442 0.22195170819759 0.9104071855545
# 64 normals

vt 0.55627751350403 0.33629059791565 0
vt 0.61032962799072 0.35595941543579 0
vt 0.6140296459198 0.34691894054413 0
vt 0 1 0
vt 0.61824858188629 0.33611953258514 0
vt 0.61362028121948 0.32575798034668 0
vt 0.43810737133026 0.31528186798096 0
vt 0.43408977985382 0.32428073883057 0
vt 0.42940092086792 0.3347806930542 0
vt 0.48759877681732 0.33576810359955 0
vt 0.4333324432373 0.34576737880707 0
vt 0.40128499269485 0.30085146427155 0
vt 0.39123111963272 0.35775530338287 0
vt 0.50588631629944 0.44561553001404 0
vt 0.47584462165833 0.47018682956696 0
vt 0.48184084892273 0.47709465026855 0
vt 0.6416871547699 0.37980246543884 0
vt 0.64899849891663 0.37077534198761 0
vt 0.53815865516663 0.22990906238556 0
vt 0.56676518917084 0.204913854599 0
vt 0.56062817573547 0.19827747344971 0
vt 0.40459477901459 0.37770986557007 0
vt 0.43683040142059 0.35503613948822 0
vt 0.53659582138062 0.44612658023834 0
vt 0.56572985649109 0.47167551517487 0
vt 0.60965812206268 0.31691789627075 0
vt 0.63977193832397 0.29355227947235 0
vt 0.50763416290283 0.22996759414673 0
vt 0.47890490293503 0.2050633430481 0
vt 0.52234625816345 0.28001868724823 0
vt 0.55951523780823 0.47836482524872 0
vt 0.55242812633514 0.48556280136108 0
vt 0.52972614765167 0.44994246959686 0
vt 0.55364292860031 0.19115030765533 0
vt 0.52288603782654 0.22129642963409 0
vt 0.49198776483536 0.19123804569244 0
vt 0.48502278327942 0.198397397995 0
vt 0.51440465450287 0.22610759735107 0
vt 0.65647089481354 0.36063325405121 0
vt 0.65290921926498 0.31161689758301 0
vt 0.64627873897552 0.30223762989044 0
vt 0.48869302868843 0.48453962802887 0
vt 0.52109849452972 0.45471513271332 0
vt 0.40785789489746 0.29201710224152 0
vt 0.3946099281311 0.31036174297333 0
vt 0.39751124382019 0.36818897724152 0
vt 0.51262664794922 0.44965744018555 0
vt 0.53137826919556 0.22607469558716 0
vt 0.52147448062897 0.39268684387207 0
# 49 texture coordinates

o Big_Button
usemtl Boutons.1
f 31/3/3 32/2/2 44/1/1
f 22/6/5 25/5/4 44/1/1
f 8/9/6 7/8/6 29/7/6
f 9/11/9 8/9/8 40/10/7
f 12/12/12 7/8/11 8/9/10
f 11/13/14 8/9/10 9/11/13
f 39/16/16 13/15/15 23/14/15
f 28/18/19 19/17/18 32/2/17
f 3/21/22 15/20/21 26/19/20
f 9/11/13 27/23/24 18/22/23
f 18/22/23 27/23/24 23/14/15
f 14/25/26 21/24/25 32/2/17
f 20/27/28 30/26/27 26/19/20
f 16/29/31 24/28/30 29/7/29
f 40/10/6 43/30/32 44/1/6
f 21/24/25 14/25/26 42/31/33
f 35/33/34 42/31/34 41/32/34
f 5/35/35 2/34/36 3/21/35
f 6/38/37 1/37/38 2/36/37
f 24/28/30 16/29/31 1/37/39
f 25/5/41 33/39/40 28/18/19
f 22/6/43 34/41/42 33/40/40
f 30/26/27 20/27/28 34/41/42
f 36/43/44 41/42/44 39/16/44
f 17/44/45 29/7/29 7/8/11
f 11/45/14 12/12/12 8/9/10
f 10/46/13 11/13/14 9/11/13
f 38/47/46 39/16/16 23/14/15
f 31/3/47 28/18/19 32/2/17
f 4/48/22 3/21/22 26/19/20
f 10/46/13 9/11/13 18/22/23
f 13/15/15 18/22/23 23/14/15
f 19/17/18 14/25/26 32/2/17
f 15/20/21 20/27/28 26/19/20
f 17/44/45 16/29/31 29/7/29
f 37/49/6 40/10/6 44/1/6
f 35/33/48 21/24/25 42/31/33
f 36/43/34 35/33/34 41/32/34
f 4/48/36 5/35/35 3/21/35
f 5/35/49 6/38/37 2/36/37
f 6/38/50 24/28/30 1/37/39
f 31/3/47 25/5/41 28/18/19
f 25/5/41 22/6/43 33/40/40
f 22/6/43 30/26/27 34/41/42
f 38/47/44 36/43/44 39/16/44
f 12/12/12 17/44/45 7/8/11
f 37/49/51 44/1/1 32/2/2
f 35/33/53 36/43/52 37/49/51
f 44/1/1 43/30/55 26/19/54
f 43/30/55 5/35/57 4/48/56
f 43/30/55 40/10/7 29/7/58
f 6/38/59 5/35/57 43/30/55
f 40/10/7 37/49/51 23/14/60
f 23/14/60 37/49/51 36/43/52
f 21/24/61 37/49/51 32/2/2
f 21/24/61 35/33/53 37/49/51
f 30/26/62 44/1/1 26/19/54
f 26/19/54 43/30/55 4/48/56
f 24/28/63 43/30/55 29/7/58
f 24/28/63 6/38/59 43/30/55
f 27/23/64 40/10/7 23/14/60
f 38/47/6 23/14/6 36/43/6
f 25/5/4 31/3/3 44/1/1
f 30/26/62 22/6/5 44/1/1
f 40/10/7 8/9/8 29/7/58
f 27/23/64 9/11/9 40/10/7

