# WaveFront *.obj file (generated by Cinema 4D)

mtllib ./button_7.mtl

v 0.08146917819977 0.08264821767807 0.01127217337489
v 0.08146917819977 0.08264821767807 0.01507470756769
v 0.08125971257687 0.08307464420795 0.01507470756769
v 0.08121928572655 0.08354801684618 0.01507470756769
v 0.12082371860743 0.08677683770657 0.01127217337489
v 0.12086117267609 0.08723585307598 0.01127217337489
v 0.12071654200554 0.08767309784889 0.01127217337489
v 0.12071654200554 0.08767309784889 0.01507470756769
v 0.12086117267609 0.08723585307598 0.01507470756769
v 0.12082371860743 0.08677683770657 0.01507470756769
v 0.10472096502781 0.06675361841917 0.01127217337489
v 0.10518351197243 0.06673350930214 0.01127217337489
v 0.10561801493168 0.06689340621233 0.01127217337489
v 0.10561801493168 0.06689340621233 0.01507470756769
v 0.10518351197243 0.06673350930214 0.01507470756769
v 0.10472096502781 0.06675361841917 0.01507470756769
v 0.09350075572729 0.1066936776042 0.01507470756769
v 0.09204438328743 0.10625241696835 0.01507470756769
v 0.09350075572729 0.1066936776042 0.01127217337489
v 0.09204438328743 0.10625241696835 0.01127217337489
v 0.08133973181248 0.08397613465786 0.01507470756769
v 0.08179314434528 0.08234351873398 0.01507470756769
v 0.08133973181248 0.08397613465786 0.01127217337489
v 0.08179314434528 0.08234351873398 0.01127217337489
v 0.12063148617744 0.08639593422413 0.01127217337489
v 0.12043991684914 0.08799793571234 0.01127217337489
v 0.10432954132557 0.06693083047867 0.01127217337489
v 0.10593695938587 0.06718131154776 0.01127217337489
v 0.10432954132557 0.06693083047867 0.01507470756769
v 0.10593695938587 0.06718131154776 0.01507470756769
v 0.12063148617744 0.08639593422413 0.01507470756769
v 0.12043991684914 0.08799793571234 0.01507470756769
v 0.08895242959261 0.07764221727848 0.01127217337489
v 0.09695267677307 0.07207284867764 0.01127217337489
v 0.09695267677307 0.07207284867764 0.01507470756769
v 0.08895242959261 0.07764221727848 0.01507470756769
v 0.11239194869995 0.09450449049473 0.01507470756769
v 0.10284376144409 0.10116347670555 0.01507470756769
v 0.11239194869995 0.09450449049473 0.01127217337489
v 0.10284376144409 0.10116347670555 0.01127217337489
v 0.08125971257687 0.08307464420795 0.01127217337489
v 0.08121928572655 0.08354801684618 0.01127217337489
v 0.09228868037462 0.10657657682896 0.01127217337489
v 0.09267553687096 0.10679329186678 0.01127217337489
v 0.09311762452126 0.1068277284503 0.01127217337489
v 0.09311762452126 0.1068277284503 0.01507470756769
v 0.09267553687096 0.10679329186678 0.01507470756769
v 0.09228868037462 0.10657657682896 0.01507470756769
# 48 vertices

vn 0 0 1
vn 0 0 1
vn 0 0 1
vn -0.79860574007034 0.60185450315475 0
vn -0.8708747625351 0.49150508642197 0
vn -0.83648282289505 0.5479930639267 0
vn -0.48873281478882 0.87243354320526 0
vn -0.07766012847424 0.99697995185852 0
vn -0.98800939321518 0.15439422428608 0
vn -0.92486315965652 0.38030007481575 0
vn -0.94536375999451 0.32601755857468 0
vn -0.97837269306183 -0.20685003697872 0
vn -0.99942064285278 0.03403368964791 0
vn -0.80429142713547 -0.59423512220383 0
vn -0.94492441415787 -0.32728880643845 0
vn 0.94293975830078 -0.332963347435 0
vn 0.83031404018402 -0.55729573965073 0
vn 0.86324429512024 -0.50478631258011 0
vn 0.99668753147125 -0.08132626116276 0
vn 0.97816574573517 -0.20782631635666 0
vn 0.87155604362488 0.49029597640038 0
vn 0.94940876960754 0.31404292583466 0
vn -0.29417851567268 -0.95575052499771 0
vn -0.5206510424614 -0.85376965999603 0
vn -0.46731880307198 -0.88408893346786 0
vn -0.04343373328447 -0.99905633926392 0
vn -0.16916197538376 -0.9855882525444 0
vn 0.51709800958633 -0.85592621564865 0
vn 0.34535706043243 -0.9384713768959 0
vn 0.42187207937241 0.90665543079376 0
vn 0.42187210917473 0.90665543079376 0
vn 0.33025148510933 0.94389307498932 0
vn -0.61934298276901 -0.78512054681778 0
vn -0.61934298276901 -0.78512060642242 0
vn 0.69802498817444 0.71607333421707 0
vn 0.73529779911041 -0.67774420976639 0
vn -0.57150483131409 -0.82059878110886 0
vn -0.55642718076706 -0.83089643716812 0
vn -0.5639066696167 -0.82583862543106 0
vn 0.61015486717224 0.79228210449219 0
vn 0.55148565769196 0.83418428897858 0
vn 0.59125465154648 0.80648481845856 0
vn 0.53058332204819 0.84763276576996 0
vn -0.57166999578476 -0.8204836845398 0
vn 0.87155598402023 0.49029597640038 0
vn -0.04343373328447 -0.99905633926392 0
vn 0.33025145530701 0.94389295578003 0
vn 0 0 1
vn 0 0 1
# 49 normals

vt 0.23869866132736 0.753382563591 0
vt 0.24217674136162 0.75800484418869 0
vt 0.28537607192993 0.7610228061676 0
vt 0 1 0
vt 0.33138632774353 0.76075446605682 0
vt 0.37253159284592 0.75753629207611 0
vt 0.37648612260818 0.75281798839569 0
vt 0.2386409342289 0.75514030456543 0
vt 0.22373566031456 0.75104451179504 0
vt 0.23858737945557 0.75714063644409 0
vt 0.22344493865967 0.75269043445587 0
vt 0.24052080512047 0.75760471820831 0
vt 0.23748742043972 0.77317023277283 0
vt 0.23957544565201 0.65224033594131 0
vt 0.23926350474358 0.65404468774796 0
vt 0.25415992736816 0.65649521350861 0
vt 0.23991970717907 0.65032094717026 0
vt 0.25456136465073 0.65479403734207 0
vt 0.25716191530228 0.63745474815369 0
vt 0.25521117448807 0.63746362924576 0
vt 0.25528180599213 0.65307629108429 0
vt 0.39173394441605 0.75379824638367 0
vt 0.39161294698715 0.75205445289612 0
vt 0.39185670018196 0.75568449497223 0
vt 0.37638437747955 0.75463151931763 0
vt 0.37551069259644 0.77274978160858 0
vt 0.37743797898293 0.77260971069336 0
vt 0.37628215551376 0.7566978931427 0
vt 0.36904728412628 0.6377534866333 0
vt 0.36725181341171 0.63774800300598 0
vt 0.36720287799835 0.65283691883087 0
vt 0.37097743153572 0.63777738809586 0
vt 0.36889123916626 0.65300500392914 0
vt 0.38633102178574 0.65427404642105 0
vt 0.38619291782379 0.65237933397293 0
vt 0.3706311583519 0.65351355075836 0
vt 0.24109295010567 0.77336752414703 0
vt 0.25884312391281 0.65248042345047 0
vt 0.25899410247803 0.63745927810669 0
vt 0.37372529506683 0.7728705406189 0
vt 0.3713772892952 0.65691298246384 0
vt 0.38644874095917 0.65603935718536 0
vt 0.33150452375412 0.63785392045975 0
vt 0.29291325807571 0.63796591758728 0
vt 0.29282522201538 0.65307831764221 0
vt 0.33153605461121 0.65293920040131 0
vt 0.33198326826096 0.77592873573303 0
vt 0.28492945432663 0.77620154619217 0
vt 0.22313615679741 0.75449234247208 0
vt 0.23937088251114 0.77328038215637 0
vt 0.25709068775177 0.65261644124985 0
vt 0.37429523468018 0.75714486837387 0
vt 0.3711696267128 0.655238032341 0
# 53 texture coordinates

o Button_7
usemtl Boutons
f 38/3/3 17/2/2 18/1/1
f 31/7/2 32/6/2 37/5/2
f 20/9/6 18/1/5 48/8/4
f 43/11/7 48/8/7 47/10/7
f 44/13/8 47/10/8 46/12/8
f 21/16/11 23/15/10 42/14/9
f 4/18/13 42/14/9 41/17/12
f 3/21/15 41/20/12 1/19/14
f 31/7/18 25/23/17 5/22/16
f 10/25/20 5/22/16 6/24/19
f 9/28/22 6/27/22 7/26/21
f 29/31/25 27/30/24 11/29/23
f 16/33/27 11/29/23 12/32/26
f 15/36/29 12/35/29 13/34/28
f 46/12/32 17/2/31 19/37/30
f 1/19/14 24/39/34 22/38/33
f 7/26/21 26/40/35 32/6/35
f 13/34/28 28/42/36 30/41/36
f 36/45/39 33/44/38 34/43/37
f 22/38/33 24/39/34 33/44/38
f 35/46/2 37/5/2 38/3/3
f 32/6/35 26/40/35 39/47/40
f 37/5/42 39/47/40 40/48/41
f 38/3/43 40/48/41 19/37/30
f 18/1/5 20/9/6 23/15/10
f 30/41/36 28/42/36 25/23/17
f 35/46/44 34/43/37 27/30/24
f 43/11/4 20/9/6 48/8/4
f 44/49/7 43/11/7 47/10/7
f 45/50/8 44/13/8 46/12/8
f 4/18/13 21/16/11 42/14/9
f 3/21/15 4/18/13 41/17/12
f 2/51/14 3/21/15 1/19/14
f 10/25/20 31/7/18 5/22/16
f 9/28/19 10/25/20 6/24/19
f 8/52/45 9/28/22 7/26/21
f 16/33/27 29/31/25 11/29/23
f 15/36/46 16/33/27 12/32/26
f 14/53/28 15/36/29 13/34/28
f 45/50/47 46/12/32 19/37/30
f 2/51/14 1/19/14 22/38/33
f 8/52/45 7/26/21 32/6/35
f 14/53/28 13/34/28 30/41/36
f 35/46/44 36/45/39 34/43/37
f 36/45/39 22/38/33 33/44/38
f 36/45/2 35/46/2 38/3/3
f 37/5/42 32/6/35 39/47/40
f 38/3/43 37/5/42 40/48/41
f 17/2/31 38/3/43 19/37/30
f 21/16/11 18/1/5 23/15/10
f 31/7/18 30/41/36 25/23/17
f 29/31/25 35/46/44 27/30/24
f 46/12/2 48/8/2 18/1/1
f 47/10/2 48/8/2 46/12/2
f 22/38/2 36/45/2 38/3/3
f 2/51/2 22/38/2 38/3/3
f 3/21/2 2/51/2 38/3/3
f 4/18/2 3/21/2 38/3/3
f 21/16/48 4/18/2 38/3/3
f 31/7/2 10/25/2 8/52/2
f 9/28/2 8/52/2 10/25/2
f 37/5/2 14/53/49 30/41/2
f 37/5/2 15/36/2 14/53/49
f 37/5/2 16/33/2 15/36/2
f 37/5/2 29/31/2 16/33/2
f 37/5/2 35/46/2 29/31/2
f 17/2/2 46/12/2 18/1/1
f 32/6/2 31/7/2 8/52/2
f 21/16/48 38/3/3 18/1/1
f 30/41/2 31/7/2 37/5/2

