# WaveFront *.obj file (generated by Cinema 4D)

mtllib ./bouton_2.mtl

v 0.03841042146087 0.13404579460621 0.00733745004982
v 0.03841042146087 0.12472737580538 0.00733745004982
v 0.04372296109796 0.12472737580538 0.00733745004982
v 0.04372296109796 0.16197541356087 0.00733745004982
v 0.02874243445694 0.16197541356087 0.00733745004982
v 0.02874243445694 0.15268559753895 0.00733745004982
v 0.03814832121134 0.15268559753895 0.00733745004982
v 0.03814832121134 0.1427363306284 0.00733745004982
v 0.02912451513112 0.1427363306284 0.00733745004982
v 0.02912451513112 0.13404579460621 0.00733745004982
v 0.04372296109796 0.16197541356087 0.01018784940243
v 0.02912451513112 0.13404579460621 0.01018784940243
v 0.02874243445694 0.15268559753895 0.01018784940243
v 0.02912451513112 0.1427363306284 0.01018784940243
v 0.02874243445694 0.16197541356087 0.01018784940243
v 0.03841042146087 0.12472737580538 0.01018784940243
v 0.04372296109796 0.12472737580538 0.01018784940243
v 0.03814832121134 0.1427363306284 0.01018784940243
v 0.03814832121134 0.15268559753895 0.01018784940243
v 0.03841042146087 0.13404579460621 0.01018784940243
v 0.02874243445694 0.15268559753895 0.01018784940243
v 0.03812678158283 0.15268559753895 0.01018784940243
v 0.04827883467078 0.1696165651083 -0.00113457941916
v 0.04884935170412 0.11715970188379 0.01018784940243
v 0.0492638014257 0.11779066175222 0.01018784940243
v 0.04939689487219 0.11848842352629 0.01018784940243
v 0.00920039694756 0.11773021519184 -0.00113457941916
v 0.00965004973114 0.1170456558466 -0.00113457941916
v 0.01033460441977 0.11659600585699 -0.00113457941916
v 0.0482183881104 0.11674524843693 0.01018784940243
v 0.04939689487219 0.167724147439 0.01018784940243
v 0.0492638014257 0.16842190921307 0.01018784940243
v 0.04752062633634 0.11661215871572 0.01018784940243
v 0.04884935170412 0.1690528690815 0.01018784940243
v 0.0482183881104 0.16946731507778 0.01018784940243
v 0.01033460441977 0.1696165651083 -0.00113457941916
v 0.00965004973114 0.16916690766811 -0.00113457941916
v 0.00920039694756 0.16848234832287 -0.00113457941916
v 0.04753555357456 0.1697583347559 -0.00113457941916
v 0.04955481737852 0.16773907840252 -0.00113457941916
v 0.04955481737852 0.11847349256277 -0.00113457941916
v 0.04753555357456 0.11645422875881 -0.00113457941916
v 0.01109281275421 0.11661215871572 0.01018784940243
v 0.04752062633634 0.16960041224957 0.01018784940243
v 0.01109281275421 0.16960041224957 0.01018784940243
v 0.01039505098015 0.11674524843693 0.01018784940243
v 0.01039505098015 0.16946731507778 0.01018784940243
v 0.00976408924907 0.1690528690815 0.01018784940243
v 0.00976408924907 0.11715970188379 0.01018784940243
v 0.0093496395275 0.16842190921307 0.01018784940243
v 0.00905862078071 0.16773907840252 -0.00113457941916
v 0.01107788551599 0.1697583347559 -0.00113457941916
v 0.01107788551599 0.11645422875881 -0.00113457941916
v 0.00905862078071 0.11847349256277 -0.00113457941916
v 0.04896339029074 0.16916690766811 -0.00113457941916
v 0.04941304400563 0.16848234832287 -0.00113457941916
v 0.04941304400563 0.11773021519184 -0.00113457941916
v 0.04896339029074 0.1170456558466 -0.00113457941916
v 0.04827883467078 0.11659600585699 -0.00113457941916
v 0.00921654608101 0.167724147439 0.01018784940243
v 0.0093496395275 0.11779066175222 0.01018784940243
v 0.00921654608101 0.11848842352629 0.01018784940243
# 62 vertices

vn 0 0 1
vn 0 0 1
vn 0 0 1
vn 0 1 0
vn -1 0 0
vn -1 0 0
vn 0 -1 0
vn 1 0 0
vn -0.99793434143066 0.06269622594118 0.01400187145919
vn -0.99200820922852 -0.12539285421371 0.01400186680257
vn -0.99793440103531 -0.06269662827253 0.01400187425315
vn 0.99793434143066 0.06269603222609 0.0140016246587
vn 0.9954651594162 -0.09408980607986 0.01400858629495
vn 0.9954651594162 -0.09409040212631 0.01400862727314
vn -0.09409026056528 0.9954651594162 0.01400876510888
vn 0.12539146840572 0.99200856685638 0.01400189008564
vn 0.06269793957472 0.99793428182602 0.01400160603225
vn 0.09409008920193 -0.99546509981155 0.0140091041103
vn -0.12539122998714 -0.99200844764709 0.01400212105364
vn -0.06269452720881 -0.9979345202446 0.01400226168334
vn -0.09409357607365 0.99546480178833 0.01400855369866
vn -0.37536209821701 0.9267692565918 0.01422002259642
vn -0.43585523962975 -0.89990490674973 0.01418881025165
vn -0.31322646141052 -0.9495724439621 0.01418881118298
vn 0.43585157394409 0.89990663528442 0.0141890309751
vn 0.31322368979454 0.94957333803177 0.01418898068368
vn 0.09408844262362 -0.99546527862549 0.01400920934975
vn 0.37536165118217 -0.92676937580109 0.01422003190964
vn -0.65666270256042 0.75405049324036 0.01420885045081
vn -0.37536114454269 0.92676955461502 0.01422041840851
vn -0.8999051451683 0.43585479259491 0.01418846659362
vn -0.75405067205429 0.6566624045372 0.0142085487023
vn -0.99200826883316 0.12539346516132 0.01400183048099
vn -0.94957202672958 0.31322774291039 0.01418852526695
vn -0.75405102968216 -0.65666204690933 0.0142089901492
vn -0.6566618680954 -0.75405126810074 0.01420897711068
vn -0.94957256317139 -0.3132258951664 0.01418868638575
vn -0.89990562200546 -0.43585395812988 0.01418876368552
vn 0.75405240058899 0.65666061639786 0.01420851703733
vn 0.65666115283966 0.7540517449379 0.01420883182436
vn 0.94957268238068 0.31322556734085 0.01418844144791
vn 0.89990544319153 0.43585419654846 0.01418845262378
vn 0.99200838804245 0.12539225816727 0.01400166191161
vn 0.65666210651398 -0.75405097007751 0.01420895196497
vn 0.37536180019379 -0.92676931619644 0.01421981025487
vn 0.92676919698715 -0.37536188960075 0.01421982329339
vn 0.75405198335648 -0.65666097402573 0.0142089407891
vn 0.92676877975464 -0.37536323070526 0.01421980839223
vn 0.99999237060547 0.00108247902244 0.00377827463672
vn 0.99999761581421 0.00216494104825 0
vn 0 1 0
vn -1 0 0
vn 1 0 0
vn 0.99997144937515 0 0.00755648966879
vn 0 0 1
vn 0 0 1
vn 0 0 1
# 57 normals

vt 0.29626363515854 0.94053137302399 0
vt 0.29680377244949 0.94371730089188 0
vt 0.29743528366089 0.94715988636017 0
vt 0 1 0
vt 0.41374713182449 0.02174234390259 0
vt 0.41367107629776 0.06297791004181 0
vt 0.43476057052612 0.18657839298248 0
vt 0.34413349628448 0.26731491088867 0
vt 0.30448031425476 0.267254114151 0
vt 0.30448031425476 0.27916836738586 0
vt 0.32852178812027 0.28012692928314 0
vt 0.32855218648911 0.29201078414917 0
vt 0.48585626482964 0.29134118556976 0
vt 0.26525321602821 0.28037047386169 0
vt 0.26528364419937 0.29229986667633 0
vt 0.26525321602821 0.26722371578217 0
vt 0.50024306774139 0.27824020385742 0
vt 0.5001517534256 0.26632595062256 0
vt 0.46096271276474 0.26658463478088 0
vt 0.56202048063278 0.27785980701447 0
vt 0.56195962429047 0.2659455537796 0
vt 0.5395005941391 0.26609766483307 0
vt 0.5395919084549 0.27802705764771 0
vt 0.29646903276443 0.72490876913071 0
vt 0.25145977735519 0.72473382949829 0
vt 0.50041043758392 0.94134449958801 0
vt 0.50112557411194 0.72506856918335 0
vt 0.45603269338608 0.72501528263092 0
vt 0.3031564950943 0.99813044071198 0
vt 0.44809752702713 0.99857759475708 0
vt 0.44809752702713 0.94892781972885 0
vt 0.45022773742676 0.67028295993805 0
vt 0.30441945791245 0.67025256156921 0
vt 0.30346846580505 0.71718662977219 0
vt 0.30343800783157 0.94847989082336 0
vt 0.30054694414139 0.94787222146988 0
vt 0.30133056640625 0.67025256156921 0
vt 0.30054694414139 0.71756702661514 0
vt 0.45116353034973 0.99859690666199 0
vt 0.45107221603394 0.94852077960968 0
vt 0.44902569055557 0.71723985671997 0
vt 0.45196241140366 0.71762788295746 0
vt 0.29673534631729 0.99806839227676 0
vt 0.30007523298264 0.99811351299286 0
vt 0.25126957893372 0.94402921199799 0
vt 0.25130006670952 0.94770961999893 0
vt 0.25126957893372 0.94063127040863 0
vt 0.29799827933311 0.67027539014816 0
vt 0.29736679792404 0.71816045045853 0
vt 0.25148263573647 0.71768879890442 0
vt 0.25145977735519 0.7213482260704 0
vt 0.29687988758087 0.72166013717651 0
vt 0.45449587702751 0.9985916018486 0
vt 0.45429044961929 0.94789123535156 0
vt 0.50038003921509 0.9484133720398 0
vt 0.50041043758392 0.94473767280579 0
vt 0.45484584569931 0.94433259963989 0
vt 0.45530992746353 0.94102209806442 0
vt 0.45665657520294 0.670305788517 0
vt 0.45331662893295 0.67028295993805 0
vt 0.501140832901 0.72168302536011 0
vt 0.501140832901 0.71801590919495 0
vt 0.45515018701553 0.71822893619537 0
vt 0.45562946796417 0.72175145149231 0
vt 0.38622123003006 0.27894008159637 0
vt 0.38612991571426 0.26705634593964 0
vt 0.42432236671448 0.27872705459595 0
vt 0.42426145076752 0.26679766178131 0
vt 0.46102356910706 0.27849876880646 0
vt 0.3441943526268 0.27922916412354 0
vt 0.48582583665848 0.27945744991302 0
vt 0.26525321602821 0.2791074514389 0
vt 0.43304115533829 0.91568446159363 0
vt 0.37368315458298 0.91543340682983 0
vt 0.43342918157578 0.75232440233231 0
vt 0.37377446889877 0.87479305267334 0
vt 0.3754101395607 0.83120083808899 0
vt 0.41106152534485 0.87491291761398 0
vt 0.41236245632172 0.75232440233231 0
vt 0.37546342611313 0.79311114549637 0
vt 0.411152780056 0.87491291761398 0
vt 0.41126692295074 0.83131498098373 0
vt 0.37642204761505 0.06291699409485 0
vt 0.37634599208832 0.10135293006897 0
vt 0.41246896982193 0.14544928073883 0
vt 0.37474828958511 0.14534270763397 0
vt 0.41233968734741 0.79313397407532 0
vt 0.41254508495331 0.10141384601593 0
vt 0.37467217445374 0.18645656108856 0
vt 0.43504971265793 0.02180314064026 0
# 90 texture coordinates

g Bouton_2
usemtl default
f 48/3/1 50/2/1 60/1/1
f 4/7/3 1/6/1 2/5/2
f 6/10/4 13/9/4 22/8/4
f 17/13/5 11/12/6 4/11/5
f 11/12/7 15/15/7 5/14/7
f 15/16/8 13/9/8 6/10/8
f 12/19/4 20/18/4 1/17/4
f 16/22/4 17/21/4 3/20/4
f 20/18/8 16/22/8 2/23/8
f 54/25/11 62/24/10 60/1/9
f 26/28/14 41/27/13 40/26/12
f 44/31/17 39/30/16 52/29/15
f 43/34/20 53/33/19 42/32/18
f 47/36/22 45/35/21 52/29/15
f 46/38/24 29/37/23 53/33/19
f 35/40/26 23/39/25 39/30/16
f 30/42/28 33/41/27 42/32/18
f 47/36/22 36/44/30 37/43/29
f 48/3/32 37/46/29 38/45/31
f 50/2/34 38/45/31 51/47/33
f 49/49/36 28/48/35 29/37/23
f 61/52/38 27/51/37 28/50/35
f 62/24/10 54/25/11 27/51/37
f 34/54/40 55/53/39 23/39/25
f 32/57/42 56/56/41 55/55/39
f 31/58/43 40/26/12 56/56/41
f 30/42/28 59/60/45 58/59/44
f 24/63/47 58/62/44 57/61/46
f 26/28/14 25/64/48 57/61/46
f 22/8/49 18/66/50 8/65/49
f 18/66/7 14/68/7 9/67/7
f 14/68/8 12/19/8 10/69/8
f 7/70/51 6/10/4 22/8/4
f 3/71/52 17/13/5 4/11/5
f 4/11/7 11/12/7 5/14/7
f 5/72/53 15/16/8 6/10/8
f 10/69/4 12/19/4 1/17/4
f 2/23/4 16/22/4 3/20/4
f 1/17/53 20/18/8 2/23/8
f 51/47/33 54/25/11 60/1/9
f 31/58/43 26/28/14 40/26/12
f 45/35/21 44/31/17 52/29/15
f 33/41/27 43/34/20 42/32/18
f 36/44/30 47/36/22 52/29/15
f 43/34/20 46/38/24 53/33/19
f 44/31/17 35/40/26 39/30/16
f 59/60/45 30/42/28 42/32/18
f 48/3/32 47/36/22 37/43/29
f 50/2/34 48/3/32 38/45/31
f 60/1/9 50/2/34 51/47/33
f 46/38/24 49/49/36 29/37/23
f 49/49/36 61/52/38 28/50/35
f 61/52/38 62/24/10 27/51/37
f 35/40/26 34/54/40 23/39/25
f 34/54/40 32/57/42 55/55/39
f 32/57/42 31/58/43 56/56/41
f 24/63/47 30/42/28 58/59/44
f 25/64/48 24/63/47 57/61/46
f 41/27/13 26/28/14 57/61/46
f 7/70/54 22/8/49 8/65/49
f 8/65/7 18/66/7 9/67/7
f 9/67/53 14/68/8 10/69/8
f 48/3/1 60/1/1 45/35/1
f 45/35/1 15/74/1 11/73/1
f 44/31/1 11/73/1 31/58/1
f 34/54/1 35/40/1 31/58/1
f 17/75/1 26/28/1 31/58/1
f 26/28/1 30/42/1 24/63/1
f 33/41/1 30/42/1 26/28/1
f 33/41/1 26/28/1 62/24/1
f 62/24/1 46/38/1 43/34/1
f 49/49/1 46/38/1 62/24/1
f 14/77/1 21/76/1 60/1/1
f 22/78/1 21/76/1 14/77/1
f 60/1/1 21/76/1 15/74/1
f 16/79/1 62/24/1 26/28/1
f 12/80/1 62/24/1 16/79/1
f 62/24/1 12/80/1 14/77/1
f 14/77/1 18/82/55 19/81/1
f 19/81/1 22/78/1 14/77/1
f 9/84/1 10/83/1 1/6/1
f 1/6/1 4/7/3 7/85/1
f 6/86/1 7/85/1 4/7/3
f 47/36/1 48/3/1 45/35/1
f 44/31/1 45/35/1 11/73/1
f 35/40/1 44/31/1 31/58/1
f 32/57/1 34/54/1 31/58/1
f 11/73/1 17/75/1 31/58/1
f 25/64/1 26/28/1 24/63/1
f 43/34/1 33/41/1 62/24/1
f 61/52/1 49/49/1 62/24/1
f 62/24/1 14/77/1 60/1/1
f 45/35/1 60/1/1 15/74/1
f 17/75/1 16/79/1 26/28/1
f 20/87/1 12/80/1 16/79/1
f 8/88/1 9/84/1 1/6/1
f 8/88/1 1/6/1 7/85/1
f 5/89/56 6/86/1 4/7/3
f 3/90/57 4/7/3 2/5/2

