# WaveFront *.obj file (generated by Cinema 4D)

mtllib ./bouton_8.mtl

v -0.00226551736705 -0.14326716959476 0.0074314866215
v -0.00226551736705 -0.12439566850662 0.0074314866215
v -0.00680944416672 -0.12439566850662 0.0074314866215
v -0.00680944416672 -0.16241289675236 0.0074314866215
v -0.00189177878201 -0.16241289675236 0.0074314866215
v 0.00290951970965 -0.15279841423035 0.0074314866215
v 0.00289395754226 -0.12438462674618 0.0074314866215
v 0.00289395754226 -0.14326716959476 0.0074314866215
v -0.00189177878201 -0.16241289675236 0.01018784940243
v -0.00680944416672 -0.16241289675236 0.01018784940243
v 0.00290951970965 -0.15279841423035 0.01018784940243
v -0.00189177878201 -0.15279841423035 0.01018784940243
v -0.00226551736705 -0.14326716959476 0.01018784940243
v 0.00290951970965 -0.16240006685257 0.01018784940243
v -0.00226551736705 -0.12439566850662 0.01018784940243
v 0.00767275551334 -0.16240006685257 0.01018784940243
v 0.00289395754226 -0.12438462674618 0.01018784940243
v -0.00680944416672 -0.12439566850662 0.01018784940243
v 0.00289395754226 -0.14326716959476 0.01018784940243
v 0.01946397125721 -0.16964583098888 0.01018784940243
v 0.01987842284143 -0.16901487112045 0.01018784940243
v 0.02001151628792 -0.16831710934639 0.01018784940243
v 0.01883300952613 -0.17006027698517 0.01018784940243
v 0.02001151628792 -0.11810079962015 0.01018784940243
v 0.01987842284143 -0.11740303784609 0.01018784940243
v 0.01813524961472 -0.17019337415695 0.01018784940243
v 0.01946397125721 -0.11677207797766 0.01018784940243
v 0.01883300952613 -0.11635762453079 0.01018784940243
v -0.01829256676137 -0.17019337415695 0.01018784940243
v 0.01813524961472 -0.11622453480959 0.01018784940243
v -0.01829256676137 -0.11622453480959 0.01018784940243
v -0.01899032667279 -0.17006027698517 0.01018784940243
v -0.01899032667279 -0.11635762453079 0.01018784940243
v -0.01962128840387 -0.11677207797766 0.01018784940243
v -0.01962128840387 -0.16964583098888 0.01018784940243
v -0.02003573998809 -0.11740303784609 0.01018784940243
v -0.02016883343458 -0.11810079962015 0.01018784940243
v -0.02003573998809 -0.16901487112045 0.01018784940243
v -0.02016883343458 -0.16831710934639 0.01018784940243
v 0.01813524961472 -0.17019337415695 -0.00109106989112
v -0.01829256676137 -0.17019337415695 -0.00109106989112
v -0.01899032667279 -0.17006027698517 -0.00109106989112
v 0.00767275551334 -0.12438462674618 0.01018784940243
v 0.00767275551334 -0.12438462674618 0.0074314866215
v 0.00767275551334 -0.16240006685257 0.0074314866215
v 0.00290951970965 -0.16240006685257 0.0074314866215
v -0.00189177878201 -0.15279841423035 0.0074314866215
v -0.01962128840387 -0.16964583098888 -0.00109106989112
v -0.02003573998809 -0.16901487112045 -0.00109106989112
v -0.02016883343458 -0.16831710934639 -0.00109106989112
v -0.02016883343458 -0.11810079962015 -0.00109106989112
v -0.02003573998809 -0.11740303784609 -0.00109106989112
v -0.01962128840387 -0.11677207797766 -0.00109106989112
v 0.01946397125721 -0.16964583098888 -0.00109106989112
v 0.01987842284143 -0.16901487112045 -0.00109106989112
v 0.02001151628792 -0.16831710934639 -0.00109106989112
v 0.02001151628792 -0.11810079962015 -0.00109106989112
v 0.01987842284143 -0.11740303784609 -0.00109106989112
v 0.01946397125721 -0.11677207797766 -0.00109106989112
v 0.01883300952613 -0.11635762453079 -0.00109106989112
v 0.01813524961472 -0.11622453480959 -0.00109106989112
v -0.01829256676137 -0.11622453480959 -0.00109106989112
v -0.01899032667279 -0.11635762453079 -0.00109106989112
v 0.01883300952613 -0.17006027698517 -0.00109106989112
# 64 vertices

vn 0 0 1
vn 1 0 0
vn -1 0 0
vn 0 -1 0
vn 0 -1 0
vn -0.65672934055328 0.75412636995316 0
vn -0.75412684679031 0.65672886371613 0
vn -0.4358993768692 0.89999544620514 0
vn -0.89999496936798 0.4359003007412 0
vn -0.94966769218445 0.31325894594193 0
vn -0.99210566282272 0.12540474534035 0
vn -0.99803227186203 0.06270237267017 0
vn -0.99803227186203 -0.06270237267017 0
vn -0.99210566282272 -0.12540474534035 0
vn -0.94966769218445 -0.3132589161396 0
vn -0.89999496936798 -0.4359003007412 0
vn -0.75412499904633 -0.6567308306694 0
vn -0.65672516822815 -0.75413000583649 0
vn -0.31325620412827 0.94966870546341 0
vn -0.12540166079998 0.99210602045059 0
vn 0.99210566282272 -0.12540474534035 0
vn 0.99803227186203 -0.06270237267017 0
vn 0.94966769218445 -0.31325894594193 0
vn 0.99803227186203 0.06270237267017 0
vn 0.99210566282272 0.12540474534035 0
vn 0.94966769218445 0.3132589161396 0
vn 0.89999496936798 0.4359003007412 0
vn 0.75412684679031 0.65672886371613 0
vn 0.65672934055328 0.75412636995316 0
vn -0.4358973801136 -0.89999634027481 0
vn -0.31326019763947 -0.94966727495193 0
vn 0 1 0
vn 0 1 0
vn 0.89999496936798 -0.4359003007412 0
vn 0.75412499904633 -0.6567308306694 0
vn 0.65672516822815 -0.75413000583649 0
vn 0.4358973801136 -0.89999634027481 0
vn 0.31326019763947 -0.94966727495193 0
vn 0.12540850043297 -0.99210518598557 0
vn -0.06270083039999 0.99803233146667 0
vn 0.06270083039999 0.99803233146667 0
vn 0.12540166079998 0.99210602045059 0
vn 0.31325620412827 0.94966870546341 0
vn -0.12540850043297 -0.99210518598557 0
vn -0.06270425021648 -0.99803221225739 0
vn 0.06270425021648 -0.99803221225739 0
vn 0.4358993768692 0.89999544620514 0
vn 0 -1 0
vn 0 0 1
# 49 normals

vt 0.7970939874649 0.61135101318359 0
vt 0.79759621620178 0.61446273326874 0
vt 0.7981743812561 0.61781787872314 0
vt 0 1 0
vt 0.73970264196396 0.18571257591248 0
vt 0.75743687152863 0.18571257591248 0
vt 0.75743687152863 0.10438525676727 0
vt 0.8593675494194 0.24190509319305 0
vt 0.78254812955856 0.24184656143188 0
vt 0.78254812955856 0.25292897224426 0
vt 0.36841079592705 0.21498680114746 0
vt 0.53606176376343 0.21427166461945 0
vt 0.53601610660553 0.20222055912018 0
vt 0.71830505132675 0.21577799320221 0
vt 0.55065405368805 0.21589982509613 0
vt 0.55068445205688 0.22792041301727 0
vt 0.78166490793228 0.21574759483337 0
vt 0.73933374881744 0.21577799320221 0
vt 0.73933374881744 0.22779881954193 0
vt 0.84523779153824 0.21571719646454 0
vt 0.80284571647644 0.21574759483337 0
vt 0.80284571647644 0.22776830196381 0
vt 0.76155388355255 0.24181723594666 0
vt 0.76155388355255 0.25292897224426 0
vt 0.79812872409821 0.6679624915123 0
vt 0.80117189884186 0.66797012090683 0
vt 0.75276947021484 0.61455398797989 0
vt 0.75276952981949 0.6179091334343 0
vt 0.75276947021484 0.61139667034149 0
vt 0.7972309589386 0.39383685588837 0
vt 0.75289118289948 0.39374554157257 0
vt 0.79762661457062 0.39061105251312 0
vt 0.7528760433197 0.39059579372406 0
vt 0.79809832572937 0.38715696334839 0
vt 0.7528760433197 0.38726353645325 0
vt 0.80121755599976 0.61845690011978 0
vt 0.80403256416321 0.6679624915123 0
vt 0.95451974868774 0.39438474178314 0
vt 0.99867689609528 0.39436948299408 0
vt 0.99869215488434 0.39123487472534 0
vt 0.95429158210754 0.61087930202484 0
vt 0.99844872951508 0.61101627349854 0
vt 0.95385026931763 0.6141431927681 0
vt 0.99846398830414 0.61415082216263 0
vt 0.95334815979004 0.61764287948608 0
vt 0.99847912788391 0.61748307943344 0
vt 0.80123281478882 0.3866091966629 0
vt 0.80129361152649 0.33723294734955 0
vt 0.79825049638748 0.33721780776978 0
vt 0.78166490793228 0.22776830196381 0
vt 0.8669359087944 0.21571719646454 0
vt 0.84523779153824 0.22773790359497 0
vt 0.71833550930023 0.22779881954193 0
vt 0.95409369468689 0.39111316204071 0
vt 0.99872261285782 0.38790249824524 0
vt 0.9535915851593 0.38761341571808 0
vt 0.95354598760605 0.33753728866577 0
vt 0.95051801204681 0.33753728866577 0
vt 0.95041143894196 0.38698959350586 0
vt 0.94765734672546 0.33753728866577 0
vt 0.80403256416321 0.6190122961998 0
vt 0.94739866256714 0.66763538122177 0
vt 0.94724643230438 0.61867755651474 0
vt 0.95025932788849 0.6676430106163 0
vt 0.804123878479 0.38624405860901 0
vt 0.80413901805878 0.33724820613861 0
vt 0.94748997688293 0.38657867908478 0
vt 0.95016801357269 0.6182667016983 0
vt 0.95328736305237 0.66765058040619 0
vt 0.26512387394905 0.21542811393738 0
vt 0.34835594892502 0.21504771709442 0
vt 0.34831792116165 0.20302700996399 0
vt 0.87878996133804 0.24190509319305 0
vt 0.85933953523636 0.25298774242401 0
vt 0.36837273836136 0.20293569564819 0
vt 0.8669359087944 0.22773790359497 0
vt 0.26508581638336 0.20337688922882 0
vt 0.87878996133804 0.25301706790924 0
vt 0.90633046627045 0.41984117031097 0
vt 0.9061478972435 0.58374136686325 0
vt 0.84954392910004 0.58409136533737 0
vt 0.84965044260025 0.41947603225708 0
vt 0.86719465255737 0.583855509758 0
vt 0.86883795261383 0.41968905925751 0
vt 0.88767552375793 0.4197803735733 0
vt 0.86877709627151 0.46128988265991 0
vt 0.88743203878403 0.58382511138916 0
vt 0.8871733546257 0.50217545032501 0
vt 0.77761816978455 0.10438525676727 0
vt 0.77767860889435 0.0633111000061 0
vt 0.75891715288162 0.0633111000061 0
vt 0.77761816978455 0.18575966358185 0
vt 0.79628890752792 0.18575966358185 0
vt 0.79628890752792 0.02193737030029 0
vt 0.77767860889435 0.02193737030029 0
vt 0.75891715288162 0.02187442779541 0
vt 0.73970264196396 0.02187442779541 0
vt 0.88762986660004 0.46133542060852 0
vt 0.8669359087944 0.50225156545639 0
# 99 texture coordinates

g Bouton_8
usemtl default
f 34/3/1 36/2/1 37/1/1
f 1/7/1 2/6/1 3/5/1
f 19/10/2 8/9/2 7/8/2
f 10/13/2 4/12/2 3/11/2
f 43/16/3 44/15/3 45/14/3
f 14/19/2 46/18/2 6/17/2
f 12/22/3 47/21/3 5/20/3
f 13/24/4 1/23/5 8/9/4
f 63/26/8 53/25/7 34/3/6
f 53/28/7 52/27/10 36/2/9
f 52/27/10 51/29/12 37/1/11
f 51/29/12 50/31/14 39/30/13
f 50/31/14 49/33/16 38/32/15
f 49/33/16 48/35/18 35/34/17
f 62/37/20 63/26/8 33/36/19
f 55/40/23 56/39/22 22/38/21
f 56/39/22 57/42/25 24/41/24
f 57/42/25 58/44/27 25/43/26
f 58/44/27 59/46/29 27/45/28
f 48/49/18 42/48/31 32/47/30
f 11/50/32 6/17/33 47/21/32
f 9/52/32 5/20/33 4/51/32
f 16/53/32 45/14/33 46/18/32
f 54/55/35 55/40/23 21/54/34
f 64/58/37 54/57/35 20/56/36
f 40/60/39 64/58/37 23/59/38
f 61/62/41 62/37/20 31/61/40
f 60/64/43 61/62/41 30/63/42
f 42/48/31 41/66/45 29/65/44
f 41/66/45 40/60/39 26/67/46
f 59/69/29 60/64/43 28/68/47
f 15/72/3 2/71/3 1/70/3
f 17/74/4 7/8/5 44/73/4
f 18/75/4 3/11/5 2/71/4
f 17/74/2 19/10/2 7/8/2
f 18/75/2 10/13/2 3/11/2
f 16/53/3 43/16/3 45/14/3
f 11/50/2 14/19/2 6/17/2
f 9/52/3 12/22/3 5/20/3
f 19/10/48 13/24/4 8/9/4
f 33/36/19 63/26/8 34/3/6
f 34/3/6 53/28/7 36/2/9
f 36/2/9 52/27/10 37/1/11
f 37/1/11 51/29/12 39/30/13
f 39/30/13 50/31/14 38/32/15
f 38/32/15 49/33/16 35/34/17
f 31/61/40 62/37/20 33/36/19
f 21/54/34 55/40/23 22/38/21
f 22/38/21 56/39/22 24/41/24
f 24/41/24 57/42/25 25/43/26
f 25/43/26 58/44/27 27/45/28
f 35/34/17 48/49/18 32/47/30
f 12/22/32 11/50/32 47/21/32
f 10/76/32 9/52/32 4/51/32
f 14/19/32 16/53/32 46/18/32
f 20/56/36 54/55/35 21/54/34
f 23/59/38 64/58/37 20/56/36
f 26/67/46 40/60/39 23/59/38
f 30/63/42 61/62/41 31/61/40
f 28/68/47 60/64/43 30/63/42
f 32/47/30 42/48/31 29/65/44
f 29/65/44 41/66/45 26/67/46
f 27/45/28 59/69/29 28/68/47
f 13/77/3 15/72/3 1/70/3
f 43/78/48 17/74/4 44/73/4
f 15/72/48 18/75/4 2/71/4
f 34/3/1 37/1/1 31/61/1
f 30/63/1 31/61/1 37/1/1
f 24/41/1 28/68/1 30/63/1
f 27/45/1 28/68/1 24/41/1
f 43/80/1 16/79/1 22/38/1
f 22/38/1 23/59/1 20/56/1
f 26/67/1 23/59/1 22/38/1
f 29/65/1 26/67/1 39/30/1
f 35/34/1 32/47/1 39/30/1
f 39/30/1 10/82/1 18/81/1
f 18/81/1 15/83/1 37/1/1
f 10/82/1 39/30/1 9/84/1
f 12/86/1 9/84/1 14/85/1
f 16/79/1 14/85/1 26/67/1
f 30/63/1 17/87/1 43/80/1
f 19/88/1 17/87/1 15/83/1
f 30/63/1 37/1/1 15/83/1
f 9/84/1 39/30/1 26/67/1
f 47/91/1 6/90/1 8/89/1
f 44/93/1 7/92/1 8/89/1
f 8/89/1 6/90/1 45/94/1
f 6/90/1 46/95/1 45/94/1
f 4/97/1 5/96/49 47/91/1
f 4/97/1 47/91/1 1/7/1
f 33/36/1 34/3/1 31/61/1
f 25/43/1 27/45/1 24/41/1
f 24/41/1 43/80/1 22/38/1
f 21/54/1 22/38/1 20/56/1
f 32/47/1 29/65/1 39/30/1
f 38/32/1 35/34/1 39/30/1
f 37/1/1 39/30/1 18/81/1
f 11/98/1 12/86/1 14/85/1
f 22/38/1 16/79/1 26/67/1
f 24/41/1 30/63/1 43/80/1
f 13/99/1 19/88/1 15/83/1
f 17/87/1 30/63/1 15/83/1
f 14/85/1 9/84/1 26/67/1
f 1/7/1 47/91/1 8/89/1
f 44/93/1 8/89/1 45/94/1
f 3/5/1 4/97/1 1/7/1

