# WaveFront *.obj file (generated by Cinema 4D)

mtllib ./bouton_1.mtl

v -0.04938397184014 0.11859109252691 0.01018784940243
v -0.04925087839365 0.11789333075285 0.01018784940243
v -0.01107989065349 0.16970308125019 0.01018784940243
v -0.01032168325037 0.11669867485762 -0.00113457941916
v -0.00963712856174 0.1171483322978 -0.00113457941916
v -0.00918747577816 0.11783288419247 -0.00113457941916
v -0.00918747577816 0.16858501732349 -0.00113457941916
v -0.00963712856174 0.16926957666874 -0.00113457941916
v -0.04954189807177 0.1185761615634 -0.00113457941916
v -0.04752263426781 0.11655689775944 -0.00113457941916
v -0.04752263426781 0.16986100375652 -0.00113457941916
v -0.04954189807177 0.16784174740314 -0.00113457941916
v -0.01038212981075 0.16956998407841 0.01018784940243
v -0.04883642867208 0.11726237088442 0.01018784940243
v -0.00975116807967 0.16915553808212 0.01018784940243
v -0.04750770702958 0.16970308125019 0.01018784940243
v -0.04820546880364 0.11684791743755 0.01018784940243
v -0.0093367183581 0.16852457821369 0.01018784940243
v -0.04938397184014 0.16782681643963 0.01018784940243
v -0.04750770702958 0.11671482771635 0.01018784940243
v -0.01106496434659 0.11655689775944 -0.00113457941916
v -0.00904569961131 0.1185761615634 -0.00113457941916
v -0.00904569961131 0.16784174740314 -0.00113457941916
v -0.01106496434659 0.16986100375652 -0.00113457941916
v -0.04940012097359 0.16858501732349 -0.00113457941916
v -0.04895046725869 0.16926957666874 -0.00113457941916
v -0.04826591536403 0.16971923410892 -0.00113457941916
v -0.00920362491161 0.16782681643963 0.01018784940243
v -0.04820546880364 0.16956998407841 0.01018784940243
v -0.01107989065349 0.11671482771635 0.01018784940243
v -0.00920362491161 0.11859109252691 0.01018784940243
v -0.04925087839365 0.16852457821369 0.01018784940243
v -0.01038212981075 0.11684791743755 0.01018784940243
v -0.04826591536403 0.11669867485762 -0.00113457941916
v -0.04895046725869 0.1171483322978 -0.00113457941916
v -0.04940012097359 0.11783288419247 -0.00113457941916
v -0.0093367183581 0.11789333075285 0.01018784940243
v -0.04883642867208 0.16915553808212 0.01018784940243
v -0.00975116807967 0.11726237088442 0.01018784940243
v -0.01032168325037 0.16971923410892 -0.00113457941916
v -0.02338340878487 0.13284227252007 0.01018784940243
v -0.01403067167848 0.12331132590771 0.01018784940243
v -0.01888024993241 0.12331132590771 0.01018784940243
v -0.03981851786375 0.13283714652061 0.01018784940243
v -0.04476690292358 0.12330686300993 0.01018784940243
v -0.03237347304821 0.16158048808575 0.01018784940243
v -0.03528635203838 0.16158048808575 0.01018784940243
v -0.01403067167848 0.16120775043964 0.01018784940243
v -0.03528635203838 0.15223364531994 0.01018784940243
v -0.03981851786375 0.12330686300993 0.01018784940243
v -0.04028141871095 0.15223364531994 0.01018784940243
v -0.04028141871095 0.16161817312241 0.01018784940243
v -0.04477761685848 0.16161817312241 0.01018784940243
v -0.04477761685848 0.14223146438599 0.01018784940243
v -0.04088406637311 0.14223146438599 0.01018784940243
v -0.04476690292358 0.13327240943909 0.01018784940243
v -0.04088406637311 0.13327240943909 0.01018784940243
v -0.02733543328941 0.12333781272173 0.00747237307951
v -0.02338340878487 0.12333781272173 0.00747237307951
v -0.02338340878487 0.13284227252007 0.00747237307951
v -0.01888024993241 0.13284227252007 0.00747237307951
v -0.01888024993241 0.12331132590771 0.00747237307951
v -0.02733543328941 0.16120775043964 0.01018784940243
v -0.01403067167848 0.12331132590771 0.00747237307951
v -0.03237347304821 0.12331730127335 0.01018784940243
v -0.03539536893368 0.12331730127335 0.01018784940243
v -0.01403067167848 0.16120775043964 0.00747237307951
v -0.02338340878487 0.12333781272173 0.01018784940243
v -0.02733543328941 0.16120775043964 0.00747237307951
v -0.01888024993241 0.13284227252007 0.01018784940243
v -0.04476690292358 0.12330686300993 0.00747237307951
v -0.03981851786375 0.12330686300993 0.00747237307951
v -0.02733543328941 0.12333781272173 0.01018784940243
v -0.03981851786375 0.13283714652061 0.00747237307951
v -0.03539536893368 0.13283714652061 0.01018784940243
v -0.04476690292358 0.13327240943909 0.00747237307951
v -0.04088406637311 0.13327240943909 0.00747237307951
v -0.04088406637311 0.14223146438599 0.00747237307951
v -0.04477761685848 0.14223146438599 0.00747237307951
v -0.04477761685848 0.16161817312241 0.00747237307951
v -0.04028141871095 0.16161817312241 0.00747237307951
v -0.04028141871095 0.15223364531994 0.00747237307951
v -0.03528635203838 0.15223364531994 0.00747237307951
v -0.03528635203838 0.16158048808575 0.00747237307951
v -0.03237347304821 0.16158048808575 0.00747237307951
v -0.03237347304821 0.12331730127335 0.00747237307951
v -0.03539536893368 0.12331730127335 0.00747237307951
v -0.03539536893368 0.13283714652061 0.00747237307951
# 88 vertices

vn 0 0 1
vn 0 -1 0
vn 1 0 0
vn -1 0 0
vn -1 0 0
vn 0 1 0
vn -0.99793440103531 -0.06269703805447 0.01400195620954
vn -0.99200814962387 0.12539386749268 0.01400188542902
vn -0.99793434143066 0.06269622594118 0.0140019543469
vn 0.99793440103531 0.06269723922014 0.01400187425315
vn 0.99546498060226 -0.09409160912037 0.01400883216411
vn 0.99546498060226 -0.09409129619598 0.01400881074369
vn -0.09409026056528 0.9954651594162 0.01400876510888
vn 0.12539152801037 0.99200844764709 0.01400188263506
vn 0.06269801408052 0.99793428182602 0.01400160137564
vn 0.09409014880657 -0.99546509981155 0.01400910038501
vn -0.12539122998714 -0.99200844764709 0.01400212105364
vn -0.06269452720881 -0.9979345202446 0.01400226168334
vn -0.09409357607365 0.99546480178833 0.01400855369866
vn -0.37536281347275 0.92676895856857 0.01422001328319
vn -0.43585854768753 -0.89990335702896 0.01418862305582
vn -0.31322687864304 -0.94957226514816 0.01418881304562
vn 0.43585222959518 0.89990639686584 0.01418904680759
vn 0.31322413682938 0.94957315921783 0.01418897509575
vn 0.0940885618329 -0.99546521902084 0.01400920096785
vn 0.375363945961 -0.92676842212677 0.01421990059316
vn -0.65666329860687 0.75404995679855 0.01420881040394
vn -0.37536197900772 0.92676913738251 0.01422041840851
vn -0.89990478754044 0.43585541844368 0.0141884451732
vn -0.75405079126358 0.65666234493256 0.01420851051807
vn -0.94957184791565 0.31322813034058 0.0141885522753
vn -0.75405180454254 -0.65666121244431 0.01420862786472
vn -0.65666460990906 -0.7540488243103 0.01420862972736
vn -0.94957184791565 -0.31322810053825 0.01418871339411
vn -0.89990472793579 -0.4358557164669 0.01418861560524
vn -0.99200820922852 -0.12539325654507 0.01400192175061
vn 0.75405269861221 0.65666019916534 0.01420855335891
vn 0.65666168928146 0.75405144691467 0.01420886814594
vn 0.9495724439621 0.31322646141052 0.01418852154166
vn 0.89990550279617 0.43585395812988 0.01418847590685
vn 0.99200826883316 0.12539346516132 0.01400182582438
vn 0.6566635966301 -0.75404971837997 0.01420866791159
vn 0.37536561489105 -0.92676776647568 0.01421980932355
vn 0.9267686009407 -0.3753636777401 0.01421981398016
vn 0.75405144691467 -0.65666162967682 0.01420866977423
vn 0.92676877975464 -0.37536323070526 0.01421980839223
vn 1 0 0
vn 1 0 0
vn -1 0 0
vn 0 1 0
vn 0 0 1
vn 0 0 1
# 52 normals

vt 0.04761254787445 0.94151854515076 0
vt 0.06553426384926 0.83015477657318 0
vt 0.06558942049742 0.79096567630768 0
vt 0 1 0
vt 0.27541756629944 0.06844043731689 0
vt 0.29411813616753 0.0666298866272 0
vt 0.29411813616753 0.02690064907074 0
vt 0.32322657108307 0.18645656108856 0
vt 0.33835136890411 0.06669068336487 0
vt 0.33835136890411 0.02658104896545 0
vt 0.27710658311844 0.31606733798981 0
vt 0.27707612514496 0.30515742301941 0
vt 0.26526841521263 0.30518782138824 0
vt 0.31502509117126 0.31599128246307 0
vt 0.31499466300011 0.30509650707245 0
vt 0.3352929353714 0.3159304857254 0
vt 0.33526250720024 0.30503571033478 0
vt 0.37339407205582 0.31586956977844 0
vt 0.37336361408234 0.30497479438782 0
vt 0.39162293076515 0.31583917140961 0
vt 0.39162293076515 0.30492913722992 0
vt 0.47032064199448 0.31568694114685 0
vt 0.470290184021 0.30477690696716 0
vt 0.48611494898796 0.31565654277802 0
vt 0.48611494898796 0.30474662780762 0
vt 0.52247381210327 0.31555008888245 0
vt 0.52247381210327 0.30465531349182 0
vt 0.53823775053024 0.31551957130432 0
vt 0.53823775053024 0.3046247959137 0
vt 0.68219727277756 0.30185556411743 0
vt 0.68216681480408 0.29096078872681 0
vt 0.66247719526291 0.29102158546448 0
vt 0.66250759363174 0.3019163608551 0
vt 0.62379783391953 0.29115867614746 0
vt 0.62382829189301 0.30203807353973 0
vt 0.60550808906555 0.29121947288513 0
vt 0.60556900501251 0.30209898948669 0
vt 0.56695050001144 0.29134118556976 0
vt 0.56698089838028 0.30223596096039 0
vt 0.55091267824173 0.29137170314789 0
vt 0.00267835520208 0.7270998954773 0
vt 0.00286308862269 0.94173347949982 0
vt 0.24921163916588 0.94074159860611 0
vt 0.24913555383682 0.72655212879181 0
vt 0.20448011159897 0.72673469781876 0
vt 0.05487728118896 0.99826937913895 0
vt 0.19785729050636 0.99741160869598 0
vt 0.19749590754509 0.94843429327011 0
vt 0.19751113653183 0.66997867822647 0
vt 0.05409840494394 0.67039710283279 0
vt 0.05433045327663 0.71951466798782 0
vt 0.05476982146502 0.94930732250214 0
vt 0.05190729349852 0.94874048233032 0
vt 0.05106659978628 0.67040473222733 0
vt 0.05144319683313 0.71989506483078 0
vt 0.20088529586792 0.99740266799927 0
vt 0.2004212141037 0.94802343845367 0
vt 0.19749972224236 0.71908861398697 0
vt 0.20031848549843 0.71962881088257 0
vt 0.04854453355074 0.99827241897583 0
vt 0.0518369153142 0.99828344583511 0
vt 0.00285390531644 0.94513332843781 0
vt 0.0028721827548 0.94881373643875 0
vt 0.04881461709738 0.94807481765747 0
vt 0.04816602915525 0.94466829299927 0
vt 0.04778372868896 0.67043513059616 0
vt 0.04830963164568 0.72048091888428 0
vt 0.00268715247512 0.72010052204132 0
vt 0.00267163896933 0.723737180233 0
vt 0.04782272130251 0.72395020723343 0
vt 0.04742234200239 0.72718358039856 0
vt 0.20416437089443 0.99736738204956 0
vt 0.20358994603157 0.94739198684692 0
vt 0.24920403957367 0.94773906469345 0
vt 0.24921923875809 0.94410145282745 0
vt 0.20411491394043 0.94388562440872 0
vt 0.2045561671257 0.9406236410141 0
vt 0.20385244488716 0.67001670598984 0
vt 0.2005543410778 0.669986307621 0
vt 0.24913936853409 0.72316658496857 0
vt 0.24912033975124 0.71949946880341 0
vt 0.20336553454399 0.72027552127838 0
vt 0.20397037267685 0.72363066673279 0
vt 0.42044225335121 0.30419886112213 0
vt 0.42044225335121 0.29330408573151 0
vt 0.43270641565323 0.29330408573151 0
vt 0.73460149765015 0.31453061103821 0
vt 0.73460149765015 0.30363583564758 0
vt 0.78858822584152 0.30352926254272 0
vt 0.58091884851456 0.31478917598724 0
vt 0.57871252298355 0.31545877456665 0
vt 0.57868206501007 0.30454874038696 0
vt 0.26511627435684 0.30419886112213 0
vt 0.26511627435684 0.29330408573151 0
vt 0.52795165777206 0.29333448410034 0
vt 0.54803687334061 0.29333448410034 0
vt 0.54803687334061 0.30422914028168 0
vt 0.48927989602089 0.30422914028168 0
vt 0.48931032419205 0.29333448410034 0
vt 0.43270641565323 0.30419886112213 0
vt 0.47135531902313 0.29333448410034 0
vt 0.83600157499313 0.30136859416962 0
vt 0.8359711766243 0.29048907756805 0
vt 0.26526841521263 0.31609785556793 0
vt 0.55094319581985 0.30226635932922 0
vt 0.788618683815 0.31443929672241 0
vt 0.58088845014572 0.30387926101685 0
vt 0.52795165777206 0.30422914028168 0
vt 0.47135531902313 0.30422914028168 0
vt 0.11388913542032 0.91393840312958 0
vt 0.18570724129677 0.91197174787521 0
vt 0.18553225696087 0.7472460269928 0
vt 0.13366436958313 0.74746668338776 0
vt 0.14899078011513 0.74742102622986 0
vt 0.13374425470829 0.91229885816574 0
vt 0.11379974335432 0.74739819765091 0
vt 0.16654255986214 0.74726885557175 0
vt 0.16661483049393 0.7882267832756 0
vt 0.10213850438595 0.74749708175659 0
vt 0.0849271863699 0.74754273891449 0
vt 0.0851021707058 0.78843224048614 0
vt 0.06556659191847 0.74761116504669 0
vt 0.08097860962152 0.83015859127045 0
vt 0.0654581785202 0.91454327106476 0
vt 0.08269802480936 0.87403798103333 0
vt 0.08297382295132 0.91446149349213 0
vt 0.10248466581106 0.91413623094559 0
vt 0.3108406662941 0.0666298866272 0
vt 0.31125149130821 0.14747297763824 0
vt 0.29008591175079 0.06844043731689 0
vt 0.29008591175079 0.10579609870911 0
vt 0.27537190914154 0.10579609870911 0
vt 0.27537190914154 0.18660867214203 0
vt 0.29236832261086 0.18660867214203 0
vt 0.31125149130821 0.18645656108856 0
vt 0.32226794958115 0.18645656108856 0
vt 0.32226794958115 0.02693092823029 0
vt 0.3108406662941 0.02693092823029 0
vt 0.37415486574173 0.18645656108856 0
vt 0.37415486574173 0.02644407749176 0
vt 0.35559120774269 0.02644407749176 0
vt 0.14906306564808 0.78826481103897 0
vt 0.10231158137321 0.78834474086761 0
vt 0.080990023911 0.79096949100494 0
vt 0.10220886766911 0.87387824058533 0
vt 0.29236832261086 0.14747297763824 0
vt 0.35559120774269 0.06669068336487 0
vt 0.27541756629944 0.02690064907074 0
vt 0.32322657108307 0.02658104896545 0
# 149 texture coordinates

g Bouton_1
usemtl default
f 56/3/1 54/2/1 19/1/1
f 72/7/1 74/6/1 76/5/1
f 59/10/1 60/9/1 69/8/1
f 46/13/2 47/12/2 84/11/2
f 47/12/3 49/15/3 83/14/3
f 49/15/2 51/17/2 82/16/2
f 51/17/4 52/19/5 81/18/4
f 52/19/2 53/21/2 80/20/2
f 53/21/3 54/23/3 79/22/3
f 54/23/6 55/25/6 78/24/6
f 55/25/3 57/27/3 77/26/3
f 57/27/2 56/29/2 76/28/2
f 43/32/6 42/31/6 64/30/6
f 70/34/3 43/32/3 62/33/3
f 41/36/6 70/34/6 61/35/6
f 68/38/4 41/36/5 60/37/4
f 73/40/6 68/38/6 59/39/6
f 19/1/9 12/42/8 9/41/7
f 31/45/12 22/44/11 23/43/10
f 3/48/15 24/47/14 11/46/13
f 20/51/18 10/50/17 21/49/16
f 29/53/20 16/52/19 11/46/13
f 17/55/22 34/54/21 10/50/17
f 13/57/24 40/56/23 24/47/14
f 33/59/26 30/58/25 21/49/16
f 29/53/20 27/61/28 26/60/27
f 38/64/30 26/63/27 25/62/29
f 32/65/31 25/62/29 12/42/8
f 14/67/33 35/66/32 34/54/21
f 2/70/35 36/69/34 35/68/32
f 1/71/36 9/41/7 36/69/34
f 15/73/38 8/72/37 40/56/23
f 18/76/40 7/75/39 8/74/37
f 28/77/41 23/43/10 7/75/39
f 33/59/26 4/79/43 5/78/42
f 39/82/45 5/81/42 6/80/44
f 31/45/12 37/83/46 6/80/44
f 66/86/6 65/85/6 86/84/6
f 48/89/2 63/88/2 69/87/2
f 58/90/3 69/87/47 63/88/3
f 56/29/3 45/92/3 71/91/3
f 65/85/4 46/94/5 85/93/4
f 71/97/6 45/96/6 50/95/6
f 50/95/4 44/99/5 74/98/4
f 75/101/3 66/86/3 87/100/3
f 74/98/6 44/99/6 75/101/6
f 42/31/4 48/103/5 67/102/4
f 85/104/2 46/13/2 84/11/2
f 84/11/48 47/12/3 83/14/3
f 83/14/2 49/15/2 82/16/2
f 82/16/49 51/17/4 81/18/4
f 81/18/2 52/19/2 80/20/2
f 80/20/48 53/21/3 79/22/3
f 79/22/6 54/23/6 78/24/6
f 78/24/48 55/25/3 77/26/3
f 77/26/2 57/27/2 76/28/2
f 62/33/6 43/32/6 64/30/6
f 61/35/48 70/34/3 62/33/3
f 60/37/6 41/36/6 61/35/6
f 59/39/49 68/38/4 60/37/4
f 58/105/6 73/40/6 59/39/6
f 1/71/36 19/1/9 9/41/7
f 28/77/41 31/45/12 23/43/10
f 16/52/19 3/48/15 11/46/13
f 30/58/25 20/51/18 21/49/16
f 27/61/28 29/53/20 11/46/13
f 20/51/18 17/55/22 10/50/17
f 3/48/15 13/57/24 24/47/14
f 4/79/43 33/59/26 21/49/16
f 38/64/30 29/53/20 26/60/27
f 32/65/31 38/64/30 25/62/29
f 19/1/9 32/65/31 12/42/8
f 17/55/22 14/67/33 34/54/21
f 14/67/33 2/70/35 35/68/32
f 2/70/35 1/71/36 36/69/34
f 13/57/24 15/73/38 40/56/23
f 15/73/38 18/76/40 8/74/37
f 18/76/40 28/77/41 7/75/39
f 39/82/45 33/59/26 5/78/42
f 37/83/46 39/82/45 6/80/44
f 22/44/11 31/45/12 6/80/44
f 87/100/6 66/86/6 86/84/6
f 67/106/2 48/89/2 69/87/2
f 73/107/3 58/90/3 63/88/3
f 76/28/48 56/29/3 71/91/3
f 86/84/49 65/85/4 85/93/4
f 72/108/50 71/97/6 50/95/6
f 72/108/49 50/95/4 74/98/4
f 88/109/48 75/101/3 87/100/3
f 88/109/50 74/98/6 75/101/6
f 64/30/49 42/31/4 67/102/4
f 38/64/1 32/65/1 19/1/1
f 38/64/1 19/1/1 16/52/1
f 46/110/1 3/48/1 16/52/1
f 3/48/1 48/111/1 28/77/1
f 15/73/1 13/57/1 28/77/1
f 48/111/1 42/112/1 31/45/1
f 39/82/1 37/83/1 31/45/1
f 39/82/1 31/45/1 30/58/1
f 30/58/1 31/45/1 1/71/1
f 1/71/1 17/55/1 20/51/1
f 14/67/1 17/55/1 1/71/1
f 31/45/1 68/114/1 73/113/1
f 65/116/1 73/113/1 63/115/1
f 3/48/1 46/110/1 63/115/1
f 31/45/1 42/112/1 43/117/1
f 68/114/1 43/117/1 70/118/1
f 1/71/1 65/116/1 66/119/1
f 44/121/1 50/120/1 66/119/1
f 1/71/1 50/120/1 45/122/51
f 1/71/1 45/122/51 56/3/1
f 55/123/1 54/2/1 56/3/1
f 54/2/1 53/124/1 19/1/1
f 16/52/1 19/1/1 53/124/1
f 47/127/1 52/126/1 51/125/1
f 73/113/1 65/116/1 1/71/1
f 16/52/1 52/126/1 47/127/1
f 31/45/1 43/117/1 68/114/1
f 1/71/1 66/119/1 50/120/1
f 76/5/1 74/6/1 88/128/1
f 77/130/1 88/128/1 83/129/1
f 79/132/1 78/131/1 83/129/1
f 81/134/1 80/133/1 79/132/1
f 86/137/1 85/136/1 84/135/1
f 88/128/1 87/138/1 86/137/1
f 67/139/1 69/8/1 60/9/1
f 62/141/1 64/140/51 67/139/1
f 29/53/1 38/64/1 16/52/1
f 47/127/1 46/110/1 16/52/1
f 13/57/1 3/48/1 28/77/1
f 18/76/1 15/73/1 28/77/1
f 28/77/1 48/111/1 31/45/1
f 33/59/1 39/82/1 30/58/1
f 20/51/1 30/58/1 1/71/1
f 2/70/1 14/67/1 1/71/1
f 46/110/1 65/116/1 63/115/1
f 48/111/1 3/48/1 63/115/1
f 41/142/52 68/114/1 70/118/1
f 75/143/1 44/121/1 66/119/1
f 57/144/1 55/123/1 56/3/1
f 52/126/1 16/52/1 53/124/1
f 49/145/1 47/127/1 51/125/1
f 31/45/1 73/113/1 1/71/1
f 77/130/1 76/5/1 88/128/1
f 78/131/1 77/130/1 83/129/1
f 82/146/1 79/132/1 83/129/1
f 82/146/1 81/134/1 79/132/1
f 83/129/1 86/137/1 84/135/1
f 83/129/1 88/128/1 86/137/1
f 61/147/1 67/139/1 60/9/1
f 61/147/1 62/141/1 67/139/1
f 1/71/1 56/3/1 19/1/1
f 71/148/1 72/7/1 76/5/1
f 58/149/1 59/10/1 69/8/1

