# WaveFront *.obj file (generated by Cinema 4D)

mtllib ./bouton_9.mtl

v 0.02835052832961 -0.16951856017113 0.01018784940243
v 0.02793607860804 -0.11727576702833 0.01018784940243
v 0.02793607860804 -0.1688876003027 -0.00109106989112
v 0.02835052832961 -0.16951856017113 -0.00109106989112
v 0.02898149006069 -0.16993300616741 -0.00109106989112
v 0.02967925183475 -0.1700661033392 -0.00109106989112
v 0.06610706448555 -0.1700661033392 -0.00109106989112
v 0.06680482625961 -0.16993300616741 -0.00109106989112
v 0.06743578612804 -0.16951856017113 -0.00109106989112
v 0.06785023957491 -0.1688876003027 -0.00109106989112
v 0.06798333674669 -0.16818983852863 -0.00109106989112
v 0.02780298516154 -0.11797352135181 0.01018784940243
v 0.02793607860804 -0.1688876003027 0.01018784940243
v 0.02780298516154 -0.16818983852863 0.01018784940243
v 0.02835052832961 -0.11664479970932 0.01018784940243
v 0.02898149006069 -0.11623035371304 0.01018784940243
v 0.02898149006069 -0.16993300616741 0.01018784940243
v 0.02967925183475 -0.11609725654125 0.01018784940243
v 0.06610706448555 -0.11609725654125 0.01018784940243
v 0.02967925183475 -0.1700661033392 0.01018784940243
v 0.02780298516154 -0.16818983852863 -0.00109106989112
v 0.02780298516154 -0.11797352135181 -0.00109106989112
v 0.06680482625961 -0.11623035371304 0.01018784940243
v 0.06743578612804 -0.11664479970932 0.01018784940243
v 0.06610706448555 -0.1700661033392 0.01018784940243
v 0.04179409891367 -0.12501582503319 0.00732681760564
v 0.06798333674669 -0.11797352135181 -0.00109106989112
v 0.05635018274188 -0.12501883506775 0.00732681760564
v 0.05635018274188 -0.15384091436863 0.00732681760564
v 0.05127190798521 -0.15384091436863 0.00732681760564
v 0.05127190798521 -0.14384695887566 0.00732681760564
v 0.04179409891367 -0.16304932534695 0.00732681760564
v 0.06785023957491 -0.11727576702833 -0.00109106989112
v 0.06743578612804 -0.11664479970932 -0.00109106989112
v 0.06680482625961 -0.11623035371304 -0.00109106989112
v 0.06610706448555 -0.11609725654125 -0.00109106989112
v 0.02967925183475 -0.11609725654125 -0.00109106989112
v 0.04679945483804 -0.14384695887566 0.00732681760564
v 0.04679945483804 -0.16304932534695 0.00732681760564
v 0.05127190798521 -0.15384091436863 0.01018784940243
v 0.04700559005141 -0.13409665226936 0.01018784940243
v 0.05127190798521 -0.14384695887566 0.01018784940243
v 0.04679945483804 -0.14384695887566 0.01018784940243
v 0.05635018274188 -0.12501883506775 0.01018784940243
v 0.04679945483804 -0.16304932534695 0.01018784940243
v 0.02898149006069 -0.11623035371304 -0.00109106989112
v 0.02835052832961 -0.11664479970932 -0.00109106989112
v 0.02793607860804 -0.11727576702833 -0.00109106989112
v 0.06785023957491 -0.11727576702833 0.01018784940243
v 0.06798333674669 -0.11797352135181 0.01018784940243
v 0.06680482625961 -0.16993300616741 0.01018784940243
v 0.06798333674669 -0.16818983852863 0.01018784940243
v 0.06785023957491 -0.1688876003027 0.01018784940243
v 0.06743578612804 -0.16951856017113 0.01018784940243
v 0.04179409891367 -0.12501582503319 0.01018784940243
v 0.0512339733541 -0.12501883506775 0.01018784940243
v 0.0512339733541 -0.13409665226936 0.01018784940243
v 0.04700559005141 -0.12501582503319 0.01018784940243
v 0.05635018274188 -0.15384091436863 0.01018784940243
v 0.04179409891367 -0.16304932534695 0.01018784940243
v 0.04700559005141 -0.12501582503319 0.00732681760564
v 0.04700559005141 -0.13409665226936 0.00732681760564
v 0.0512339733541 -0.13409665226936 0.00732681760564
v 0.0512339733541 -0.12501883506775 0.00732681760564
# 64 vertices

vn 0 0 1
vn 0 0 1
vn 0 0 1
vn 0 0 1
vn 0 1 0
vn 0 1 0
vn -1 0 0
vn 1 0 0
vn 0 -1 0
vn 0 -1 0
vn -0.89999681711197 0.43589636683464 0
vn -0.94966810941696 0.31325790286064 0
vn -0.75412839651108 0.65672707557678 0
vn -0.65672701597214 0.75412845611572 0
vn -0.43589723110199 0.89999634027481 0
vn -0.75412595272064 -0.65672987699509 0
vn -0.65672570466995 -0.75412958860397 0
vn -0.89999550580978 -0.4358991086483 0
vn -0.43589723110199 -0.89999634027481 0
vn -0.31325989961624 -0.94966745376587 0
vn -0.12540815770626 -0.99210530519485 0
vn -0.06270407885313 -0.99803221225739 0
vn -0.31325989961624 0.94966745376587 0
vn -0.12540815770626 0.99210530519485 0
vn -0.06270407885313 0.99803221225739 0
vn 0.06270407885313 0.99803221225739 0
vn 0.12540815770626 0.99210530519485 0
vn 0.31326028704643 0.94966727495193 0
vn 0.43589806556702 0.89999604225159 0
vn 0.65672671794891 0.7541286945343 0
vn 0.75412684679031 0.65672886371613 0
vn 0.89999490976334 0.43590033054352 0
vn 0.06270407885313 -0.99803221225739 0
vn 0.12540815770626 -0.99210530519485 0
vn 0.31326028704643 -0.94966727495193 0
vn 0.43589806556702 -0.89999604225159 0
vn 0.9496665596962 0.31326246261597 0
vn 0.99210512638092 0.12540948390961 0
vn 0.99803215265274 0.0627047419548 0
vn 0.99803221225739 -0.06270407885313 0
vn -0.99210548400879 0.12540607154369 0
vn -0.99803221225739 0.06270302832127 0
vn -0.99803227186203 -0.06270237267017 0
vn -0.99210566282272 -0.12540474534035 0
vn -0.94966793060303 -0.31325832009315 0
vn 0.65672540664673 -0.7541298866272 0
vn 0.75412446260452 -0.65673160552979 0
vn 0.8999936580658 -0.4359031021595 0
vn 0.94966650009155 -0.3132629096508 0
vn 0.99210530519485 -0.12540815770626 0
vn 0 -1 0
vn 0.00000000000001 -0.00000000000001 1
# 52 normals

vt 0.04773902893066 0.28575694561005 0
vt 0.05377696454525 0.28703498840332 0
vt 0.04655407369137 0.27909219264984 0
vt 0 1 0
vt 0.81694257259369 0.10449588298798 0
vt 0.81694257259369 0.02167880535126 0
vt 0.79736089706421 0.02167880535126 0
vt 0.93047302961349 0.27914845943451 0
vt 0.91144627332687 0.27915573120117 0
vt 0.91148430109024 0.28976118564606 0
vt 0.97244399785995 0.2521721124649 0
vt 0.9894956946373 0.25209367275238 0
vt 0.98944556713104 0.24131739139557 0
vt 0.89922916889191 0.2525120973587 0
vt 0.9723938703537 0.24139595031738 0
vt 0.96788769960403 0.27910614013672 0
vt 0.93048655986786 0.28975403308868 0
vt 0.80357825756073 0.27927315235138 0
vt 0.8035916686058 0.28987860679626 0
vt 0.71345114707947 0.20091199874878 0
vt 0.53718775510788 0.20123136043549 0
vt 0.537218272686 0.21433246135712 0
vt 0.79926997423172 0.20075976848602 0
vt 0.7796716094017 0.20079016685486 0
vt 0.77970200777054 0.21392166614532 0
vt 0.86503392457962 0.20066845417023 0
vt 0.84132725000381 0.20069885253906 0
vt 0.84135764837265 0.21383035182953 0
vt 0.73758381605148 0.20088148117065 0
vt 0.71345114707947 0.21404349803925 0
vt 0.73761433362961 0.213982462883 0
vt 0.79930037260056 0.21389126777649 0
vt 0.04710850864649 0.28228759765625 0
vt 0.00170189491473 0.28245496749878 0
vt 0.00169306085445 0.28587865829468 0
vt 0.04772286489606 0.33656346797943 0
vt 0.05080792307854 0.33656346797943 0
vt 0.04732343554497 0.05232667922974 0
vt 0.00155055103824 0.0526157617569 0
vt 0.00155521789566 0.05597853660583 0
vt 0.050546400249 0.05168759822845 0
vt 0.05052357912064 0.00171792507172 0
vt 0.0474518276751 0.00170266628265 0
vt 0.05351829528809 0.0512615442276 0
vt 0.05341558158398 0.00173306465149 0
vt 0.05087639391422 0.28642642498016 0
vt 0.05371134728193 0.33656346797943 0
vt 0.19877025485039 0.33651781082153 0
vt 0.19868656992912 0.28697419166565 0
vt 0.20166131854057 0.33653295040131 0
vt 0.20166513323784 0.28656327724457 0
vt 0.20473498106003 0.33653295040131 0
vt 0.20489093661308 0.28592431545258 0
vt 0.25074085593224 0.28561985492706 0
vt 0.25072181224823 0.28224205970764 0
vt 0.19843548536301 0.0511702299118 0
vt 0.19848877191544 0.00161135196686 0
vt 0.20141404867172 0.05159628391266 0
vt 0.2013988494873 0.00156581401825 0
vt 0.20540827512741 0.28234851360321 0
vt 0.25069898366928 0.27904653549194 0
vt 0.20585715770721 0.27903139591217 0
vt 0.25045174360275 0.05897617340088 0
vt 0.88014924526215 0.25259053707123 0
vt 0.8991791009903 0.24170958995819 0
vt 0.00171930645593 0.2792444229126 0
vt 0.04636482149363 0.05918920040131 0
vt 0.00155391753651 0.05917394161224 0
vt 0.0468117967248 0.05588722229004 0
vt 0.20463985204697 0.05222010612488 0
vt 0.20448771119118 0.00152003765106 0
vt 0.20516100525856 0.05579590797424 0
vt 0.25046694278717 0.05579590797424 0
vt 0.25047838687897 0.05240273475647 0
vt 0.20561370253563 0.05911302566528 0
vt 0.96790105104446 0.28971147537231 0
vt 0.8650643825531 0.21379995346069 0
vt 0.88009917736053 0.24178814888 0
vt 0.13948450982571 0.24815785884857 0
vt 0.12269165366888 0.24802088737488 0
vt 0.1595773845911 0.12207734584808 0
vt 0.10183988511562 0.08169376850128 0
vt 0.12171591818333 0.08178508281708 0
vt 0.10200726240873 0.24815785884857 0
vt 0.13943506777287 0.12207734584808 0
vt 0.12167026847601 0.16577792167664 0
vt 0.15976378321648 0.24820351600647 0
vt 0.12299216538668 0.20826137065887 0
vt 0.79736089706421 0.1857031583786 0
vt 0.81776458024979 0.14654076099396 0
vt 0.81776458024979 0.1857031583786 0
vt 0.83429312705994 0.14654076099396 0
vt 0.83443993330002 0.10449588298798 0
vt 0.83429312705994 0.18568766117096 0
vt 0.85428589582443 0.18568766117096 0
vt 0.85428589582443 0.06139314174652 0
vt 0.83443993330002 0.06139314174652 0
vt 0.13941223919392 0.1657931804657 0
vt 0.13978503644466 0.20839822292328 0
# 99 texture coordinates

g Bouton_9
usemtl default
f 12/3/3 18/2/2 15/1/1
f 32/7/2 39/6/4 38/5/2
f 59/10/5 29/9/6 30/8/5
f 42/13/5 31/12/6 38/11/5
f 43/15/7 38/11/7 39/14/7
f 40/17/8 30/8/8 31/16/8
f 44/19/7 28/18/7 29/9/7
f 60/22/8 32/21/8 26/20/8
f 41/25/9 62/24/10 63/23/9
f 56/28/9 64/27/10 28/26/9
f 55/30/9 26/20/10 61/29/9
f 58/31/7 61/29/7 62/24/7
f 57/32/8 63/23/8 64/27/8
f 47/35/13 48/34/12 2/33/11
f 46/37/15 47/36/13 15/1/14
f 3/40/18 4/39/17 1/38/16
f 4/43/17 5/42/20 17/41/19
f 5/42/20 6/45/22 20/44/21
f 37/47/24 46/37/15 16/46/23
f 36/48/26 37/47/24 18/2/25
f 35/50/28 36/48/26 19/49/27
f 34/52/30 35/50/28 23/51/29
f 33/55/32 34/54/30 24/53/31
f 6/45/22 7/57/34 25/56/33
f 7/57/34 8/59/36 51/58/35
f 27/61/38 33/55/32 49/60/37
f 11/63/40 27/61/38 50/62/39
f 45/65/5 39/14/6 32/64/5
f 48/34/12 22/66/42 12/3/41
f 22/66/42 21/68/44 14/67/43
f 21/68/44 3/40/18 13/69/45
f 8/59/36 9/71/47 54/70/46
f 9/74/47 10/73/49 53/72/48
f 10/73/49 11/63/40 52/75/50
f 40/17/5 59/10/5 30/8/5
f 43/15/5 42/13/5 38/11/5
f 45/65/7 43/15/7 39/14/7
f 42/76/8 40/17/8 31/16/8
f 59/10/7 44/19/7 29/9/7
f 55/30/8 60/22/8 26/20/8
f 57/32/51 41/25/9 63/23/9
f 44/77/51 56/28/9 28/26/9
f 58/31/51 55/30/9 61/29/9
f 41/25/7 58/31/7 62/24/7
f 56/28/8 57/32/8 64/27/8
f 15/1/14 47/35/13 2/33/11
f 16/46/23 46/37/15 15/1/14
f 13/69/45 3/40/18 1/38/16
f 1/38/16 4/43/17 17/41/19
f 17/41/19 5/42/20 20/44/21
f 18/2/25 37/47/24 16/46/23
f 19/49/27 36/48/26 18/2/25
f 23/51/29 35/50/28 19/49/27
f 24/53/31 34/52/30 23/51/29
f 49/60/37 33/55/32 24/53/31
f 20/44/21 6/45/22 25/56/33
f 25/56/33 7/57/34 51/58/35
f 50/62/39 27/61/38 49/60/37
f 52/75/50 11/63/40 50/62/39
f 60/78/5 45/65/5 32/64/5
f 2/33/11 48/34/12 12/3/41
f 12/3/41 22/66/42 14/67/43
f 14/67/43 21/68/44 13/69/45
f 51/58/35 8/59/36 54/70/46
f 54/70/46 9/74/47 53/72/48
f 53/72/48 10/73/49 52/75/50
f 18/2/2 16/46/2 15/1/1
f 58/80/2 56/79/2 19/49/2
f 50/62/2 23/51/2 19/49/2
f 24/53/2 23/51/2 50/62/2
f 59/81/2 52/75/2 50/62/2
f 52/75/2 51/58/2 54/70/2
f 25/56/2 51/58/2 52/75/2
f 45/83/2 60/82/2 20/44/2
f 20/44/2 60/82/2 14/67/2
f 1/38/2 17/41/2 14/67/2
f 55/84/2 12/3/3 14/67/2
f 43/86/2 45/83/2 40/85/2
f 59/81/2 40/85/2 45/83/2
f 19/49/2 56/79/2 44/87/2
f 56/79/2 58/80/2 41/88/2
f 55/84/2 58/80/2 18/2/2
f 45/83/2 25/56/2 52/75/2
f 38/5/2 62/90/2 26/89/2
f 62/90/2 61/91/2 26/89/2
f 31/93/2 63/92/2 62/90/2
f 28/95/2 64/94/2 63/92/2
f 28/95/2 63/92/2 31/93/2
f 31/93/2 30/97/2 29/96/2
f 18/2/2 58/80/2 19/49/2
f 49/60/2 24/53/2 50/62/2
f 44/87/2 59/81/2 50/62/2
f 53/72/2 52/75/2 54/70/2
f 25/56/2 45/83/2 20/44/2
f 17/41/2 20/44/2 14/67/2
f 13/69/2 1/38/2 14/67/2
f 60/82/2 55/84/2 14/67/2
f 42/98/2 43/86/2 40/85/2
f 50/62/2 19/49/2 44/87/2
f 57/99/2 56/79/2 41/88/2
f 12/3/3 55/84/2 18/2/2
f 59/81/2 45/83/2 52/75/2
f 32/7/2 38/5/2 26/89/2
f 38/5/2 31/93/2 62/90/2
f 29/96/2 28/95/2 31/93/2
f 2/33/52 12/3/3 15/1/1

