# WaveFront *.obj file (generated by Cinema 4D)

mtllib ./bouton_7.mtl

v -0.06610706448555 -0.11587958782911 -0.00116443494335
v -0.02967925183475 -0.11587958782911 -0.00116443494335
v -0.06680482625961 -0.1160126850009 -0.00116443494335
v -0.06743578612804 -0.11642713099718 -0.00116443494335
v -0.06785023957491 -0.11705809831619 -0.00116443494335
v -0.06798333674669 -0.11775585263968 -0.00116443494335
v -0.06798333674669 -0.16797216236591 -0.00116443494335
v -0.06785023957491 -0.16866992413998 -0.00116443494335
v -0.06743578612804 -0.16930088400841 -0.00116443494335
v -0.06680482625961 -0.16971534490585 -0.00116443494335
v -0.06610706448555 -0.16984842717648 -0.00116443494335
v -0.02967925183475 -0.16984842717648 -0.00116443494335
v -0.02898149006069 -0.16971534490585 -0.00116443494335
v -0.02835052832961 -0.16930088400841 -0.00116443494335
v -0.02793607860804 -0.16866992413998 -0.00116443494335
v -0.02780298516154 -0.16797216236591 -0.00116443494335
v -0.02780298516154 -0.11775585263968 -0.00116443494335
v -0.02793607860804 -0.11705809831619 -0.00116443494335
v -0.02835052832961 -0.11642713099718 -0.00116443494335
v -0.02898149006069 -0.1160126850009 -0.00116443494335
v -0.05337044596672 -0.16233623027802 0.00742450868711
v -0.03815837204456 -0.124835729599 0.00742450868711
v -0.03814981132746 -0.16233623027802 0.00742450868711
v -0.04392673820257 -0.14327423274517 0.00742450868711
v -0.04732831567526 -0.12480872124434 0.00742450868711
v -0.05420426279306 -0.12480872124434 0.00742450868711
v -0.05420426279306 -0.14383943378925 0.00742450868711
v -0.04875199869275 -0.14383943378925 0.00742450868711
v -0.04875199869275 -0.15270030498505 0.00742450868711
v -0.05337044596672 -0.15270030498505 0.00742450868711
v -0.03814981132746 -0.15269124507904 0.00742450868711
v -0.04345696792006 -0.15269124507904 0.00742450868711
v -0.04345696792006 -0.14425282180309 0.00742450868711
v -0.04345696792006 -0.14425282180309 0.01018784940243
v -0.03815837204456 -0.14425282180309 0.01018784940243
v -0.03815837204456 -0.124835729599 0.01018784940243
v -0.03815837204456 -0.14425282180309 0.00742450868711
v -0.04875199869275 -0.14383943378925 0.01018784940243
v -0.04732831567526 -0.12480872124434 0.01018784940243
v -0.04732831567526 -0.14327423274517 0.01018784940243
v -0.04392673820257 -0.14327423274517 0.01018784940243
v -0.04392673820257 -0.124835729599 0.01018784940243
v -0.05337044596672 -0.15270030498505 0.01018784940243
v -0.04875199869275 -0.15270030498505 0.01018784940243
v -0.05420426279306 -0.12480872124434 0.01018784940243
v -0.03814981132746 -0.15269124507904 0.01018784940243
v -0.04345696792006 -0.15269124507904 0.01018784940243
v -0.05337044596672 -0.16233623027802 0.01018784940243
v -0.03814981132746 -0.16233623027802 0.01018784940243
v -0.05420426279306 -0.14383943378925 0.01018784940243
v -0.02835052832961 -0.16930088400841 0.01018784940243
v -0.02793607860804 -0.16866992413998 0.01018784940243
v -0.02780298516154 -0.16797216236591 0.01018784940243
v -0.02898149006069 -0.16971534490585 0.01018784940243
v -0.02780298516154 -0.11775585263968 0.01018784940243
v -0.02793607860804 -0.11705809831619 0.01018784940243
v -0.02967925183475 -0.16984842717648 0.01018784940243
v -0.02835052832961 -0.11642713099718 0.01018784940243
v -0.02898149006069 -0.1160126850009 0.01018784940243
v -0.06610706448555 -0.16984842717648 0.01018784940243
v -0.02967925183475 -0.11587958782911 0.01018784940243
v -0.06610706448555 -0.11587958782911 0.01018784940243
v -0.06680482625961 -0.16971534490585 0.01018784940243
v -0.06680482625961 -0.1160126850009 0.01018784940243
v -0.06743578612804 -0.11642713099718 0.01018784940243
v -0.06743578612804 -0.16930088400841 0.01018784940243
v -0.06785023957491 -0.11705809831619 0.01018784940243
v -0.06798333674669 -0.11775585263968 0.01018784940243
v -0.06785023957491 -0.16866992413998 0.01018784940243
v -0.06798333674669 -0.16797216236591 0.01018784940243
v -0.04392673820257 -0.124835729599 0.00742450868711
v -0.04732831567526 -0.14327423274517 0.00742450868711
# 72 vertices

vn 0 0 1
vn -1 0 0
vn 0 -1 0
vn 0 -1 0
vn -0.06270407885313 0.99803221225739 0
vn -0.12540815770626 0.99210530519485 0
vn 0.06270407885313 0.99803221225739 0
vn -0.31326028704643 0.94966727495193 0
vn -0.43589803576469 0.89999604225159 0
vn -0.65672671794891 0.75412875413895 0
vn -0.75412684679031 0.65672886371613 0
vn -0.89999490976334 0.43590036034584 0
vn -0.9496665596962 0.31326243281364 0
vn -0.99210512638092 0.12540948390961 0
vn -0.99803215265274 0.0627047419548 0
vn -0.99803221225739 -0.06270407885313 0
vn -0.99210530519485 -0.12540815770626 0
vn -0.94966650009155 -0.31326287984848 0
vn -0.8999936580658 -0.43590307235718 0
vn -0.75412797927856 -0.6567274928093 0
vn -0.65673369169235 -0.75412255525589 0
vn 1 0 0
vn -0.43590199947357 -0.8999941945076 0
vn -0.31325230002403 -0.94966995716095 0
vn -0.12539450824261 -0.99210697412491 0
vn -0.0626972541213 -0.9980326294899 0
vn 0.0626972541213 -0.9980326294899 0
vn 0.12539450824261 -0.99210697412491 0
vn 0.3132518529892 -0.94967013597488 0
vn 0.43590119481087 -0.89999461174011 0
vn 0.65673404932022 -0.75412225723267 0
vn 0.75412952899933 -0.6567257642746 0
vn 0.89999550580978 -0.43589904904366 0
vn 0.94966793060303 -0.31325832009315 0
vn 0.99210566282272 -0.12540474534035 0
vn 0.99803227186203 -0.06270237267017 0
vn 0.99803221225739 0.06270303577185 0
vn 0.99210548400879 0.12540607154369 0
vn 0.43589723110199 0.89999634027481 0
vn 0.31325992941856 0.94966745376587 0
vn 0.65672701597214 0.75412839651108 0
vn 0.12540815770626 0.99210530519485 0
vn 0.94966810941696 0.31325787305832 0
vn 0.89999681711197 0.43589633703232 0
vn 0.75412839651108 0.65672701597214 0
vn 0 1 0
vn 0 1 0
vn 0 -1 0
vn 0 0 1
# 49 normals

vt 0.60310399532318 0.49818885326386 0
vt 0.54885852336884 0.39348685741425 0
vt 0.5490106344223 0.61147272586823 0
vt 0 1 0
vt 0.71683591604233 0.06433665752411 0
vt 0.73784947395325 0.02224147319794 0
vt 0.67759305238724 0.02222621440887 0
vt 0.48110884428024 0.21562576293945 0
vt 0.43777340650558 0.21577799320221 0
vt 0.4378342628479 0.22805738449097 0
vt 0.41394498944283 0.21583890914917 0
vt 0.37602645158768 0.21597588062286 0
vt 0.37608730792999 0.22827053070068 0
vt 0.6252281665802 0.26591503620148 0
vt 0.7081863284111 0.26577818393707 0
vt 0.70815593004227 0.25351393222809 0
vt 0.85270887613297 0.2665388584137 0
vt 0.83743190765381 0.26659989356995 0
vt 0.83746236562729 0.27886402606964 0
vt 0.96147364377975 0.26618897914886 0
vt 0.93554538488388 0.26628029346466 0
vt 0.9356062412262 0.27854442596436 0
vt 0.73907500505447 0.26574778556824 0
vt 0.73904460668564 0.25345313549042 0
vt 0.88889276981354 0.26553463935852 0
vt 0.90964752435684 0.26550436019897 0
vt 0.90961712598801 0.25319445133209 0
vt 0.41397541761398 0.22814869880676 0
vt 0.35222846269608 0.21606719493866 0
vt 0.26497933268547 0.21638667583466 0
vt 0.26504018902779 0.22865092754364 0
vt 0.55616223812103 0.61937749385834 0
vt 0.55610144138336 0.6689059138298 0
vt 0.70018267631531 0.66873860359192 0
vt 0.55327117443085 0.61877644062042 0
vt 0.55319511890411 0.66892874240875 0
vt 0.55016708374023 0.61807650327682 0
vt 0.55012148618698 0.66895920038223 0
vt 0.54955840110779 0.61464530229568 0
vt 0.50429058074951 0.61475944519043 0
vt 0.50429058074951 0.61812216043472 0
vt 0.50429058074951 0.61158686876297 0
vt 0.50412321090698 0.39345645904541 0
vt 0.54929983615875 0.3902153968811 0
vt 0.50410795211792 0.3903067111969 0
vt 0.54980194568634 0.38668525218964 0
vt 0.50409281253815 0.38695919513702 0
vt 0.95295262336731 0.26539778709412 0
vt 0.95292210578918 0.25313353538513 0
vt 0.55299723148346 0.38604617118835 0
vt 0.55284512042999 0.33621346950531 0
vt 0.54980194568634 0.33621346950531 0
vt 0.55593395233154 0.38563537597656 0
vt 0.55570578575134 0.33621346950531 0
vt 0.69957399368286 0.38502669334412 0
vt 0.69948267936707 0.33563530445099 0
vt 0.70244979858398 0.38562023639679 0
vt 0.70235848426819 0.33562004566193 0
vt 0.70556914806366 0.38630485534668 0
vt 0.70541703701019 0.33562004566193 0
vt 0.70620822906494 0.38974368572235 0
vt 0.7516131401062 0.38948500156403 0
vt 0.7516131401062 0.38609194755554 0
vt 0.70677125453949 0.39289355278015 0
vt 0.75159788131714 0.3926956653595 0
vt 0.70718204975128 0.61132061481476 0
vt 0.75200867652893 0.61129015684128 0
vt 0.7030280828476 0.61879932880402 0
vt 0.70304334163666 0.66875374317169 0
vt 0.70610177516937 0.66876900196075 0
vt 0.70006096363068 0.61921775341034 0
vt 0.70674073696136 0.61461490392685 0
vt 0.75203919410706 0.61445510387421 0
vt 0.70622336864471 0.61816024780273 0
vt 0.75205433368683 0.61781024932861 0
vt 0.8245894908905 0.26562595367432 0
vt 0.82455909252167 0.2533313035965 0
vt 0.85276979207993 0.27883350849152 0
vt 0.84908747673035 0.26556515693665 0
vt 0.8888623714447 0.25322484970093 0
vt 0.54951280355453 0.21536719799042 0
vt 0.48116970062256 0.22789013385773 0
vt 0.35225889086723 0.22836184501648 0
vt 0.84905707836151 0.25328576564789 0
vt 0.62519776821136 0.25363564491272 0
vt 0.96150404214859 0.27845311164856 0
vt 0.54954326152802 0.22766184806824 0
vt 0.63029509782791 0.58054602146149 0
vt 0.66631162166595 0.45946383476257 0
vt 0.66623556613922 0.49616515636444 0
vt 0.60626894235611 0.41795432567596 0
vt 0.66622030735016 0.41763484477997 0
vt 0.60631459951401 0.4597225189209 0
vt 0.62455862760544 0.49812805652618 0
vt 0.60314959287643 0.58072859048843 0
vt 0.63094943761826 0.50018215179443 0
vt 0.64371573925018 0.58056128025055 0
vt 0.66643339395523 0.58056879043579 0
vt 0.6453742980957 0.45943355560303 0
vt 0.67759305238724 0.06429076194763 0
vt 0.69588100910187 0.06429076194763 0
vt 0.69588100910187 0.10297250747681 0
vt 0.70150810480118 0.10543704032898 0
vt 0.67431062459946 0.10297250747681 0
vt 0.67431062459946 0.18603003025055 0
vt 0.71683591604233 0.10116612911224 0
vt 0.71498948335648 0.10543704032898 0
vt 0.73782014846802 0.18592298030853 0
vt 0.73782014846802 0.10116612911224 0
vt 0.73784947395325 0.06433665752411 0
vt 0.6244825720787 0.45967698097229 0
vt 0.64437001943588 0.50031912326813 0
vt 0.64534384012222 0.49614989757538 0
vt 0.70150810480118 0.18603003025055 0
vt 0.71498948335648 0.18592298030853 0
# 115 texture coordinates

g Bouton_7
usemtl default
f 68/3/1 70/2/1 50/1/1
f 21/7/1 23/6/1 32/5/1
f 46/10/2 31/9/2 23/8/2
f 34/13/2 33/12/2 32/11/2
f 39/16/2 25/15/2 72/14/2
f 40/19/3 72/18/4 24/17/3
f 42/22/3 71/21/4 22/20/3
f 45/24/3 26/23/4 25/15/3
f 43/27/3 30/26/4 29/25/3
f 47/28/3 32/11/4 31/9/3
f 36/31/2 22/30/2 37/29/2
f 2/34/7 1/33/6 62/32/5
f 1/33/6 3/36/9 64/35/8
f 3/36/9 4/38/11 65/37/10
f 4/41/11 5/40/13 67/39/12
f 5/40/13 6/42/15 68/3/14
f 6/42/15 7/43/17 70/2/16
f 7/43/17 8/45/19 69/44/18
f 8/45/19 9/47/21 66/46/20
f 48/49/22 21/48/22 30/26/22
f 9/52/21 10/51/24 63/50/23
f 10/51/24 11/54/26 60/53/25
f 11/54/26 12/56/28 57/55/27
f 12/56/28 13/58/30 54/57/29
f 13/58/30 14/60/32 51/59/31
f 14/63/32 15/62/34 52/61/33
f 15/62/34 16/65/36 53/64/35
f 16/65/36 17/67/38 55/66/37
f 19/70/41 20/69/40 59/68/39
f 20/69/40 2/34/7 61/71/42
f 17/67/38 18/73/44 56/72/43
f 18/73/44 19/75/41 58/74/45
f 50/77/22 27/76/22 26/23/22
f 41/78/22 24/17/22 71/21/22
f 44/80/22 29/25/22 28/79/22
f 49/82/46 23/8/47 21/81/46
f 35/83/46 37/29/47 33/12/46
f 38/84/46 28/79/47 27/76/46
f 49/82/2 46/10/2 23/8/2
f 47/28/2 34/13/2 32/11/2
f 40/85/2 39/16/2 72/14/2
f 41/78/48 40/19/3 24/17/3
f 36/86/48 42/22/3 22/20/3
f 39/16/48 45/24/3 25/15/3
f 44/80/48 43/27/3 29/25/3
f 46/10/48 47/28/3 31/9/3
f 35/83/2 36/31/2 37/29/2
f 61/71/42 2/34/7 62/32/5
f 62/32/5 1/33/6 64/35/8
f 64/35/8 3/36/9 65/37/10
f 65/37/10 4/41/11 67/39/12
f 67/39/12 5/40/13 68/3/14
f 68/3/14 6/42/15 70/2/16
f 70/2/16 7/43/17 69/44/18
f 69/44/18 8/45/19 66/46/20
f 43/27/22 48/49/22 30/26/22
f 66/46/20 9/52/21 63/50/23
f 63/50/23 10/51/24 60/53/25
f 60/53/25 11/54/26 57/55/27
f 57/55/27 12/56/28 54/57/29
f 54/57/29 13/58/30 51/59/31
f 51/59/31 14/63/32 52/61/33
f 52/61/33 15/62/34 53/64/35
f 53/64/35 16/65/36 55/66/37
f 58/74/45 19/70/41 59/68/39
f 59/68/39 20/69/40 61/71/42
f 55/66/37 17/67/38 56/72/43
f 56/72/43 18/73/44 58/74/45
f 45/24/22 50/77/22 26/23/22
f 42/22/22 41/78/22 71/21/22
f 38/84/22 44/80/22 28/79/22
f 48/87/46 49/82/46 21/81/46
f 34/13/46 35/83/46 33/12/46
f 50/77/46 38/84/46 27/76/46
f 68/3/1 62/32/1 65/37/1
f 62/32/1 64/35/1 65/37/1
f 61/71/1 62/32/1 39/88/1
f 55/66/1 59/68/1 61/71/1
f 58/74/1 59/68/1 55/66/1
f 55/66/1 35/90/1 46/89/1
f 51/59/1 52/61/1 53/64/1
f 51/59/1 53/64/1 57/55/1
f 57/55/1 49/92/1 48/91/1
f 60/53/1 48/91/1 70/2/1
f 66/46/1 63/50/1 70/2/1
f 38/94/1 50/1/1 43/93/1
f 62/32/1 68/3/1 45/95/1
f 42/97/1 39/88/1 40/96/1
f 36/98/1 55/66/1 61/71/1
f 55/66/1 36/98/1 35/90/1
f 47/99/1 46/89/1 35/90/1
f 53/64/1 46/89/1 49/92/1
f 70/2/1 48/91/1 43/93/1
f 29/101/1 30/100/1 21/7/1
f 72/103/1 28/102/1 29/101/1
f 26/105/1 27/104/1 28/102/1
f 26/105/1 28/102/1 72/103/1
f 24/107/1 72/103/1 33/106/1
f 24/107/1 37/109/1 22/108/1
f 29/101/1 32/5/1 33/106/1
f 23/6/1 31/110/1 32/5/1
f 67/39/1 68/3/1 65/37/1
f 42/97/1 61/71/1 39/88/1
f 56/72/1 58/74/1 55/66/1
f 53/64/1 55/66/1 46/89/1
f 54/57/1 51/59/1 57/55/1
f 60/53/1 57/55/1 48/91/1
f 63/50/1 60/53/1 70/2/1
f 69/44/1 66/46/1 70/2/1
f 44/111/1 38/94/1 43/93/1
f 39/88/1 62/32/1 45/95/1
f 41/112/1 42/97/1 40/96/1
f 42/97/1 36/98/1 61/71/1
f 34/113/49 47/99/1 35/90/1
f 57/55/1 53/64/1 49/92/1
f 50/1/1 70/2/1 43/93/1
f 25/114/1 26/105/1 72/103/1
f 37/109/1 24/107/1 33/106/1
f 71/115/49 24/107/1 22/108/1
f 72/103/1 29/101/1 33/106/1
f 45/95/1 68/3/1 50/1/1
f 29/101/1 21/7/1 32/5/1

